<?xml version="1.0" encoding="utf-8"?>
<!-- Generator: Adobe Illustrator 26.0.1, SVG Export Plug-In . SVG Version: 6.00 Build 0)  -->
<svg version="1.1" id="Camada_1" xmlns="http://www.w3.org/2000/svg" xmlns:xlink="http://www.w3.org/1999/xlink" x="0px" y="0px"
	 viewBox="0 0 512 512" enable-background="new 0 0 512 512" xml:space="preserve">
<g>
	<path fill="#26231E" d="M281.6,302.12c-3.25,2.71-6.8,4.85-10.92,5.99c-3.19,0.88-6.4,1.24-9.7,0.8c-3-0.4-5.75-1.29-7.89-3.52
		c-1.43-1.49-2.37-3.29-2.32-5.42c0.02-0.7-0.44-0.78-0.82-0.86c-2.77-0.58-5.46-1.44-8.1-2.44c-4.46-1.69-8.62-3.9-12.46-6.75
		c-1.9-1.41-3.64-2.98-5.26-4.69c-3.43-3.59-5.82-7.83-7.71-12.38c-1.33-3.2-2.21-6.54-2.81-9.93c-0.27-1.53-0.5-3.11-0.45-4.69
		c0.04-1.21-0.27-2.4-0.22-3.63c0.25-5.39,0.9-10.71,2.51-15.89c0.93-2.98,2.2-5.82,3.39-8.7c0.73-1.74,1.23-3.58,1.99-5.33
		c1.13-2.57,2.43-5.03,3.96-7.38c0.71-1.1,1.32-2.27,2.44-3.07c1.18-0.85,2.37-0.82,3.63-0.26c1.21,0.54,2.21,1.39,3.11,2.3
		c2.38,2.41,5.04,4.51,7.38,6.95c1.1,1.15,2.56,1.19,3.94,1.28c1.61,0.11,3.25,0.29,4.85,0.2c2.66-0.15,5.33-0.37,7.98-0.74
		c0.96-0.14,1.94-0.1,2.91-0.21c3.26-0.34,6.54-0.54,9.81-0.85c2.29-0.22,4.59-0.41,6.84-0.84c2.7-0.52,4.64-2.47,4.95-5.3
		c0.27-2.52,1.29-4.8,2.07-7.17c0.28-0.84,0.56-1.68,0.84-2.51c0.05-0.15,0.19-0.33,0.15-0.46c-0.1-0.37-0.44-0.84,0.14-1.01
		c0.49-0.14,1.18-0.31,1.54,0.11c1.06,1.24,2.55,1.83,3.86,2.66c3.76,2.39,7.32,5.01,10.38,8.26c0.64,0.68,1.2,1.43,1.77,2.17
		c3.86,5.03,7.82,9.99,10.39,15.87c1.84,4.2,3.37,8.48,4.05,13.04c0.37,2.5,0.65,4.99,0.58,7.51c-0.13,4.27-0.88,8.43-2.55,12.37
		c-1.38,3.23-2.81,6.45-4.79,9.39c-2.13,3.17-4.61,6.04-7.46,8.55c-4.76,4.2-10.19,7.41-15.94,10.07c-0.45,0.21-0.89,0.42-1.33,0.63
		C285.27,298.65,283.69,300.59,281.6,302.12z"/>
	<path fill="#26231E" d="M243.44,353.42c1.67-0.31,3.02-0.64,4.39-0.8c3.44-0.41,6.9-0.79,10.37-0.6c2.94,0.16,5.87,0.33,8.8,0.75
		c2.85,0.42,5.69,0.89,8.52,1.45c3.59,0.71,7.13,1.63,10.67,2.51c0.64,0.16,1.35,0.66,1.86,0.5c0.7-0.22,0.16-1.11,0.32-1.7
		c1.24-4.65,4.34-7.28,8.95-8.23c3.83-0.79,7.65-0.77,11.28,0.84c3.08,1.36,6.17,4.9,6.13,8.74c-0.02,2.85-1.1,5.21-2.68,7.41
		c-1.07,1.49-2.19,2.96-3.56,4.21c-0.4,0.36-0.77,0.74-1.31,0.9c2.25,3.57,3.66,7.46,4.66,11.53c1.09,4.42,1.26,8.93,0.96,13.42
		c-0.27,4.08-1.29,8.05-3,11.82c-1.65,3.65-3.88,6.9-6.78,9.62c-3.49,3.28-7.53,5.75-11.91,7.75c-5.6,2.55-11.49,4.15-17.42,5.58
		c-3.24,0.78-6.55,1.33-9.88,1.73c-3.93,0.48-7.87,0.74-11.81,0.55c-5.95-0.3-11.73-1.45-17.23-3.84c-3.5-1.52-6.76-3.45-9.73-5.82
		c-2.42-1.93-4.52-4.2-6.34-6.73c-2.53-3.52-4.17-7.46-5.07-11.67c-0.39-1.81-0.76-3.66-0.7-5.55c0.04-1.25-0.33-2.47-0.2-3.73
		c0.31-2.91,0.46-5.84,0.97-8.74c0.68-3.91,1.73-7.69,3.13-11.4c0.18-0.49,0.34-1.01,0.62-1.44c1.07-1.59,0.26-2.63-0.89-3.73
		c-2.28-2.18-3.62-4.92-4.44-7.94c-0.51-1.87-0.81-3.79-0.78-5.71c0.06-3.82,0.97-7.39,3.97-10.05c2.67-2.36,5.82-3.81,9.32-4.5
		c3.84-0.76,7.7-0.83,11.27,0.89c3.86,1.86,6.59,4.89,7.65,9.16c0.15,0.61,0.29,1.31,0.25,1.98
		C243.78,352.83,243.9,353.1,243.44,353.42z"/>
	<path fill="#26231E" d="M281.45,182.18c3.62-1.7,6.96-1.44,10.37,1.2c1.12,0.87,2.22,1.77,3.46,2.48c2.58,1.48,4.14,0.24,5.53-1.54
		c1.09-1.41,1.87-3.02,3.02-4.41c2.02-2.44,4.84-2.95,7.47-1.33c1.38,0.84,2.58,1.94,4.06,2.63c1.05,0.48,2.13,0.39,2.95-0.4
		c0.53-0.51,1.07-0.51,1.62-0.12c0.67,0.47,0.71,1.23,0.35,1.79c-0.58,0.88-1.47,1.37-2.59,1.47c-2.21,0.2-4-0.65-5.67-1.97
		c-0.69-0.55-1.43-1.08-2.21-1.5c-1.67-0.89-3.33-0.49-4.42,1.03c-0.81,1.12-1.55,2.29-2.34,3.44c-0.84,1.22-1.76,2.36-3.1,3.07
		c-2.06,1.1-4.03,0.73-5.94-0.37c-1.76-1.02-3.14-2.54-4.85-3.64c-2.46-1.58-5.8-1.47-8.08,0.32c-0.42,0.33-0.84,0.66-1.23,1.03
		c-0.43,0.4-0.77,1.1-1.5,0.25c-0.23-0.27-0.76,0.07-1.08,0.31c-1.91,1.4-4.02,2.36-6.33,2.84c-3.01,0.62-5.87,0.31-8.51-1.4
		c-1.03-0.67-2.27-0.62-3.4-0.95c-3.52-1.02-6.81-2.42-9.61-4.89c-3.3-2.91-5.02-6.45-5.04-10.89c-0.02-3.92,1.29-7.38,3.26-10.66
		c0.93-1.54,1.99-2.98,3.24-4.29c0.34-0.36,0.77-0.76,0.69-1.38c-0.02-0.16-0.03-0.42,0.2-0.38c1.42,0.22,1.93-1.09,2.78-1.73
		c3.67-2.8,7.77-4.05,12.33-3.56c3,0.32,5.63,1.67,8.02,3.54c1.62,1.27,3.02,2.76,4.22,4.36c1.59,2.12,2.88,4.49,3.88,6.96
		c0.8,1.97,1.47,4,1.95,6.08c0.38,1.63,0.31,3.27,0.33,4.92c0,0.38-0.1,0.77,0.42,0.99c0.47,0.21,0.52,0.73,0.36,1.15
		c-0.17,0.44-0.35,0.96-1.01,0.97c-0.85,0.01-1.07,0.44-0.81,1.24c0.13,0.39,0.07,0.97-0.37,1.05
		C282.53,180.13,282.43,181.61,281.45,182.18z"/>
	<path fill="#26231E" d="M325.34,155.57c-1.42,0.15-2.84,0.32-4.26,0.44c-1.98,0.17-3.96,0.36-5.92-0.17
		c-0.54-0.15-0.81-0.26-0.89,0.51c-0.25,2.47-0.76,4.9-2.24,6.97c-0.94,1.31-2.1,2.38-3.87,2.41c-1.16,0.02-2.22-0.73-2.63-1.79
		c-0.6-1.56-0.59-3.15-0.13-4.7c0.83-2.74,1.93-5.38,3.58-7.75c0.04-0.05,0.03-0.13,0.06-0.19c0.25-0.57,1.33-0.7,1-1.51
		c-0.22-0.56-0.77-1-1.21-1.46c-0.7-0.72-1.34-1.49-1.91-2.31c-0.27-0.39-0.53-0.36-0.78,0.01c-1,1.54-2.63,2.51-3.67,4.02
		c-0.37,0.53-1.69,0.54-2,0.05c-0.4-0.63-0.47-1.27,0.18-1.89c1.21-1.15,2.35-2.37,3.56-3.52c0.58-0.56,0.95-0.82,0.19-1.74
		c-1.92-2.32-3.95-4.54-5.9-6.88c-1.64,1.97-3.23,3.9-4.84,5.81c-0.35,0.41-0.76,0.77-1.12,1.18c-0.63,0.73-1.3,0.47-1.83-0.04
		c-0.55-0.53-0.51-1.25,0-1.79c0.91-0.95,1.83-1.89,2.68-2.89c1.07-1.25,2.16-2.48,3.28-3.68c0.35-0.38,0.08-0.62-0.1-0.82
		c-1.05-1.22-2.09-2.46-3.21-3.61c-0.77-0.8-1.34-1.79-2.32-2.48c-1.33,1.66-2.43,3.5-3.6,5.29c-0.49,0.74-0.92,1.53-1.45,2.24
		c-0.51,0.68-1.27,0.73-1.91,0.31c-0.66-0.43-0.69-1.14-0.25-1.79c1.66-2.47,3.36-4.91,5.22-7.24c0.44-0.55,0.39-0.88-0.07-1.37
		c-1.22-1.31-2.37-2.67-3.45-4.18c-2.49,2.93-5.33,5.52-8,8.26c-0.38,0.39-0.77,0.75-1.37,0.72c-0.45-0.03-0.87-0.15-1.07-0.59
		c-0.19-0.42-0.28-0.89,0.11-1.26c2.06-1.96,3.91-4.15,6.13-5.95c0.21-0.17,0.4-0.37,0.59-0.57c3.71-3.71,7.45-7.38,11.11-11.14
		c1.15-1.18,2.25-2.43,3.43-3.59c0.25-0.24,0.42-0.46,0.04-0.73c-2.75-1.93-5.45-3.95-8.75-4.88c-3.5-0.98-6.9-0.81-10.25,0.71
		c-3.18,1.44-5.75,3.57-7.71,6.44c-0.48,0.7-0.85,1.49-1.22,2.26c-0.18,0.39-0.12,0.73,0.24,1.11c2.82,3.01,6.19,5.22,9.9,6.95
		c0.59,0.28,1.48,0.55,1.18,1.33c-0.25,0.66-1.04,0.27-1.62,0.11c-3.04-0.83-5.67-2.44-8.18-4.27c-0.71-0.52-1.32-1.18-2.17-1.62
		c-0.07,2.01,0.62,3.76,1.35,5.49c0.8,1.89,1.93,3.59,3.05,5.3c0.49,0.74,0.37,1.62-0.26,2.02c-0.69,0.44-1.71,0.27-2.18-0.38
		c-2.11-2.93-3.91-6.02-4.7-9.59c-0.85-3.87-0.07-7.41,2.22-10.66c1.87-2.65,4.27-4.69,7.08-6.19c1.9-1.02,3.97-1.68,6.16-2
		c4.03-0.59,7.72,0.34,11.18,2.29c2.46,1.39,4.76,3.02,6.38,5.43c0.21,0.32,0.15,0.5-0.04,0.8c-0.99,1.47-2.16,2.8-3.33,4.11
		c-2.31,2.59-4.7,5.11-7.04,7.67c-0.93,1.02-0.9,1.02,0.03,1.97c0.94,0.97,1.85,1.97,2.76,2.96c0.27,0.29,0.48,0.44,0.81,0.05
		c1.64-1.98,3.28-3.96,4.95-5.91c0.43-0.5,0.93-0.98,1.5-1.31c0.45-0.25,0.93-0.12,0.95,0.6c0.01,0.37-0.12,0.69-0.31,0.93
		c-2.02,2.55-4.11,5.04-5.99,7.72c1.77,1.97,3.58,3.96,5.34,5.99c0.57,0.65,0.94,0.67,1.47-0.01c1.37-1.76,2.82-3.46,4.14-5.26
		c0.42-0.57,0.98-0.98,1.36-1.59c0.22-0.37,0.92-0.53,1.35-0.13c0.34,0.32,0.25,0.75-0.02,1.18c-1.7,2.7-3.7,5.16-5.66,7.67
		c-0.28,0.36-0.35,0.58-0.02,0.95c1.36,1.53,2.67,3.1,4.03,4.61c0.67,0.75,1.33,1.5,1.91,2.32c0.34,0.48,0.61,0.57,1.09,0.07
		c1.75-1.81,3.55-3.57,5.33-5.35c0.26-0.26,0.5-0.53,0.87-0.67c0.48-0.18,0.93-0.23,1.27,0.24c0.34,0.48,0.25,0.9-0.17,1.34
		c-2.14,2.25-4.26,4.52-6.35,6.76c1.12,1.35,2.28,2.65,3.33,4.04c0.95,1.26,2.43,1.3,3.58,0.66c1.41-0.78,2.83-1.52,4.4-1.94
		c3.42-0.93,6.81-1.03,9.83,1.09c1.51,1.06,3,2.28,3.59,4.2c0.33,1.08,0.13,1.61-0.85,2.1c-1.1,0.56-2.28,0.84-3.49,1.01
		c-0.25,0.04-0.43,0.15-0.63,0.26C327.25,155.41,326.33,155.74,325.34,155.57z"/>
	<path fill="#26231E" d="M210.86,188.64c1.68,0.27,3.67,0.18,5.43,1.2c1.55,0.9,2.48,2.23,2.55,4.01c0.06,1.72-1.36,3.43-3.04,4.18
		c-1.26,0.56-2.58,0.73-3.9,1c-1.63,0.34-2.93,1.16-3.44,2.85c-0.15,0.51-0.38,0.91-0.76,1.25c-3.15,2.82-5.95,2.33-7.65-1.65
		c-1.76-4.12,0.95-9.01,4.19-10.78C206.24,189.61,208.29,188.63,210.86,188.64z"/>
	<path fill="#9594C8" d="M219.31,103.86c-0.72-1.69-1.03-3.47-1.26-5.27c-0.03-0.23,0.06-0.52-0.05-0.7
		c-0.21-0.36-0.06-1.05-0.79-0.97c-0.77,0.08-0.32,0.68-0.38,1.03c-0.21,1.11,0.42,2.15,0.36,3.25c-0.52,0.08-0.67-0.37-0.92-0.65
		c0.57,0.9,1.13,1.83,1.34,2.91c0.19,1-0.22,1.46-1.21,1.43c-0.98-1.22-2.08-2.34-2.88-3.69c-0.38-0.62-0.62-1.34-1.21-1.82
		c-1.98-2.83-3.92-5.67-3.88-9.34c0.01-0.95,0.4-1.53,1.44-1.48c1.38,0.84,2.94,0.99,4.49,1.17c2.51,0.3,4.79-0.38,6.94-1.63
		c1.17-0.45,2.34-0.1,3.49,0.07c0.78,0.12,1.21,0.8,1.39,1.58c0.36,0.44,0.23,0.95,0.2,1.44c-0.43,0.94-0.52,1.93-0.5,2.95
		c0.03,1.35-0.29,2.66-0.47,3.99c-0.08,1.06-0.52,1.98-1.04,2.88c-0.69-0.07-1.28-0.16-1.32,0.89c-0.02,0.68-0.67,1.08-1.31,1.34
		c-0.19-1.48,0.16-2.94,0.22-4.41c0.02-0.38,0.02-0.64-0.41-0.69c-0.41-0.05-0.6,0.03-0.7,0.55c-0.31,1.58-0.1,3.15-0.17,4.73
		C220.4,104.04,219.94,104.21,219.31,103.86z"/>
	<path fill="#26231E" d="M330.88,328.57c0.11,1.18-0.26,2.8-1.09,4.33c-1.34,2.49-4.8,3.26-7.16,1.84c-1.78-1.07-2.66-2.71-3.4-4.47
		c-0.43-1.02-0.73-2.12-1.29-3.07c-0.79-1.34-1.89-2.28-3.56-2.38c-1.91-0.11-3.9-2.31-3.97-4.23c-0.1-2.64,1.16-4.43,3.32-5.81
		c0.91-0.58,1.65-1.38,2.79-1.62c3.09-0.62,5.83,0.1,8.35,1.91c1.41,1.01,2.38,2.29,3.02,3.94c0.31,0.8,1.14,1.42,1.58,2.26
		C330.61,323.39,330.83,325.68,330.88,328.57z"/>
	<path fill="#26231E" d="M288.35,109.38c0.16,1.71-1.04,3.79-3.12,4.63c-1.81,0.73-3.9,0.28-5.27-1.31
		c-2.37-2.77-1.69-6.62,1.41-8.02c0.82-0.37,2.91-0.43,3.77,0.55c0.19,0.22,0.41,0.38,0.73,0.49
		C287.49,106.29,288.35,107.61,288.35,109.38z"/>
	<path fill="#26231E" d="M192.32,190.79c-0.06-1.85,0.02-3.38,1.31-4.67c1.96-1.96,4.7-1.29,5.83,1.04
		c1.31,2.71,0.32,5.99-2.26,6.94c-1.27,0.47-3.44,0.51-4.45-0.82C192.08,192.4,192.43,191.46,192.32,190.79z"/>
	<path fill="#26231E" d="M205,177.58c3.06-0.2,4.06,2.71,3.56,4.89c-0.48,2.1-1.87,3.35-3.94,3.63c-1.45,0.19-2.75-0.41-3.66-1.63
		c-0.84-1.13-1.25-2.39-1.01-3.81c0.32-1.88,1.73-2.54,3.35-2.86C203.87,177.69,204.45,177.41,205,177.58z"/>
	<path fill="#26231E" d="M219.69,180.9c0.15,2.34-2.04,5.13-4.81,4.85c-1.58-0.16-2.43-1.16-2.95-2.49
		c-0.61-1.57-0.76-3.15,0.37-4.62c0.17-0.22,0.36-0.35,0.54-0.52c0.48-0.44,1.2-0.53,1.52-1.22c0.13-0.27,0.59-0.34,0.98-0.37
		C217.66,176.36,219.89,178.27,219.69,180.9z"/>
	<path fill="#26231E" d="M335.97,319.51c-2.02,0.25-4.35-1.24-4.83-3.29c-0.41-1.75-0.11-3.46,1.28-4.66
		c1.41-1.22,3.12-1.91,5.04-1.19c0.81,0.3,1.36,0.97,1.76,1.71c0.75,1.38,1.52,2.78,1.06,4.46c-0.5,1.84-1.95,2.98-3.81,2.98
		C336.31,319.51,336.14,319.51,335.97,319.51z"/>
	<path fill="#26231E" d="M326.76,313.18c-2.22,0.26-4.77-2.02-5.44-4c-0.43-1.28,0.16-2.48,1.13-3.43c1.61-1.59,4.87-2.61,7.13-0.75
		c0.76,0.62,1.21,1.3,1.3,2.31c0.11,1.23,0.19,2.4-0.41,3.55C329.61,312.48,328.54,313.18,326.76,313.18z"/>
	<path fill="#26231E" d="M338.12,330.97c-1.54,0.1-2.91-0.9-4.08-2.26c-0.75-0.88-0.76-3.14,0.07-4.32c1.51-2.17,4.72-2.9,6.81-1.36
		c0.72,0.53,1.55,1.12,2.02,1.81c0.81,1.19,0.55,2.63-0.17,3.87C341.84,330.34,340.32,330.96,338.12,330.97z"/>
	<path fill="#26231E" d="M315.75,311.34c-1.64,0-3.43-1.05-3.84-2.29c-0.54-1.63-0.27-2.98,1.06-4.24c1.45-1.37,2.53-1.38,3.91,0.04
		c0.81,0.83,1.74,1.54,2.13,2.73c0.57,1.74-0.24,2.83-1.71,3.47C316.83,311.26,316.24,311.49,315.75,311.34z"/>
	<path fill="#26231E" d="M192.51,200.4c0.04-2.43,1.59-3.84,4.13-3.41c0.94,0.16,1.83,1.31,1.75,2.55
		c-0.06,0.98-0.15,2.03-0.95,2.83c-1.1,1.1-1.96,1.38-3.18,0.9C193.46,202.96,192.29,201.73,192.51,200.4z"/>
	<path fill="#E43C5F" d="M281.6,302.12c1.81-1.75,3.36-3.73,4.7-5.85c-0.12,2.18-1.48,3.6-3.05,4.84
		C282.76,301.5,282.33,302.08,281.6,302.12z"/>
	<path fill="#FDFDFD" d="M325.34,155.57c0.95-0.14,1.87-0.49,2.84-0.41C327.31,155.77,326.39,156.14,325.34,155.57z"/>
	<path fill="#FFFFFF" d="M263.18,262.74c-1.97,1.58-4.17,2.13-6.62,1.42c-1.44-0.42-2.2-1.53-2.52-2.91
		c-0.19-0.82,0.29-1.48,1.06-1.7c0.69-0.2,1.48-0.25,1.98,0.52c0.8,1.25,1.54,1.52,2.88,1.03c1.72-0.62,3.03-3,2.65-4.77
		c-0.07-0.35-0.27-0.28-0.49-0.34c-0.72-0.21-1.46-0.21-2.2-0.19c-0.76,0.02-1.27-0.4-1.6-1.02c-0.34-0.63-0.22-1.27,0.26-1.81
		c0.48-0.55,0.56-1.31,1.17-1.82c0.95-0.8,2.51-1.22,3.61-0.64c0.53,0.28,1.13-0.02,1.62,0.4c1.03,0.88,1.32,2.49,0.33,3.66
		c-1.09,1.3-0.14,2.56-0.2,3.83c-0.01,0.13,0.25,0.32,0.43,0.41c1.44,0.77,2.99,1.09,4.46,0.26c1.58-0.9,2.69-2.19,2.42-4.24
		c-0.17-1.29,0.14-1.78,1.21-2.19c1.1-0.43,1.96,0.19,2.06,1.37c0.2,2.31-0.43,4.38-1.98,6.05c-1.11,1.2-2.57,1.95-4.27,2.07
		c-0.51,0.04-1.02,0.03-1.53,0.04c-0.92,0.16-1.66-0.31-2.33-0.79c-0.73-0.51-1.1-0.37-1.45,0.39
		C263.94,262.17,263.72,262.64,263.18,262.74z"/>
	<path fill="#E43C5F" d="M280.76,298.31c-2.26,2.71-5.04,4.62-8.17,5.98c-3.24,1.41-6.65,2.21-10.22,2.14
		c-2.94-0.06-5.71-0.74-7.93-2.78c-0.95-0.87-1.58-2.03-1.9-3.35c-0.13-0.55-0.07-0.7,0.43-0.6c1.05,0.21,2.1,0.37,3.17,0.45
		c0.97,0.07,1.92,0.27,2.89,0.35c1.21,0.09,2.44,0.16,3.63,0.15c3.22-0.03,6.44-0.18,9.65-0.68c2.7-0.42,5.37-0.94,7.99-1.7
		C280.42,298.25,280.56,298.3,280.76,298.31z"/>
	<path fill="#FFFFFF" d="M222.17,226.32c-0.31,1.37-0.66,2.74-0.93,4.12c-0.48,2.5-0.92,5.01-1.35,7.52c-0.37,2.19-0.74,4.38-1,6.59
		c-0.16,1.32-0.32,2.65-0.41,3.98c-0.21,2.82-0.45,5.65-0.4,8.47c0.12,6.13,0.86,12.18,3.04,17.97c0.27,0.72,0.7,1.4,0.74,2.21
		c-1.22-1.63-2.17-3.42-2.98-5.27c-1.26-2.86-2.21-5.83-2.74-8.92c-0.3-1.73-0.66-3.48-0.72-5.22c-0.1-3.08-0.21-6.17,0.19-9.24
		c0.41-3.14,0.98-6.25,1.8-9.33c1.1-4.13,2.74-8.07,4.15-12.09c0.11-0.3,0.3-0.57,0.46-0.85
		C222.07,226.28,222.12,226.3,222.17,226.32z"/>
	<path fill="#FFFFFF" d="M226.71,227.53c-0.22-0.09-0.31-0.26-0.28-0.49c0.32-2.51,0.27-5.09,1.42-7.45c0.31-0.63,0.7-1.2,1.37-1.34
		c0.66-0.14,0.95,0.53,1.29,0.96c1.41,1.75,2.77,3.54,3.93,5.47c0.63,1.05,0.55,1.55-0.53,2.06c-0.74,0.35-1.46,0.72-2.28,0.91
		c-1.25,0.28-2.41,0.33-3.51-0.48C227.24,226.52,226.95,226.63,226.71,227.53z"/>
	<path fill="#FFFFFF" d="M295.96,221.14c-2.79-0.28-5.14-0.58-7.51-0.69c-0.59-0.03-0.81-0.33-0.63-1.01
		c0.51-1.94,0.91-3.9,1.35-5.85c0.16-0.71,1.08-1.01,2.06-0.53c2.85,1.38,4.62,3.63,5.29,6.74c0.01,0.03-0.01,0.07,0,0.1
		C296.96,220.93,296.69,221.37,295.96,221.14z"/>
	<path fill="#E43C5F" d="M263.18,262.74c0.27-0.38,0.66-0.72,0.8-1.14c0.39-1.24,0.92-1,1.76-0.38c0.62,0.46,1.44,0.64,2.18,0.95
		c0.47,1.9,0.26,3.73-0.71,5.42c-0.22,0.38-0.35,0.72-0.3,1.12c0.1,0.9-0.49,1.33-1.18,1.54c-0.76,0.23-1.36-0.12-1.72-0.86
		c-0.98-1.99-1.27-4.06-0.8-6.23C263.22,263.02,263.19,262.87,263.18,262.74z"/>
	<path fill="#FFFFFF" d="M299.29,250.9c1.24-0.06,2.47,0.02,3.67,0.39c0.86,0.26,1.17,0.72,0.9,1.66c-0.21,0.71-0.68,1.06-1.47,0.87
		c-1.4-0.35-2.81-0.49-4.27-0.49c-2.13-0.01-3.98,0.86-5.82,1.73c-0.61,0.29-1.17,0.48-1.58-0.09c-0.41-0.56-0.03-1.05,0.43-1.47
		c1.49-1.36,3.31-1.96,5.23-2.41C297.35,250.86,298.32,250.92,299.29,250.9z"/>
	<path fill="#FFFFFF" d="M232.19,239.87c1.38-0.2,2.45,0.91,2.42,2.45c-0.02,1.22-0.57,2.27-1.27,3.16
		c-1.06,1.34-2.95,0.96-3.66-0.62c-0.75-1.68-0.55-3.29,0.49-4.35C230.75,239.91,231.44,239.85,232.19,239.87z"/>
	<path fill="#FFFFFF" d="M287.96,239.8c-0.17-0.98,0.15-1.85,0.62-2.66c0.44-0.77,1.19-1.12,2.05-0.93
		c0.68,0.15,0.99,0.67,1.23,1.38c0.5,1.49,0.35,2.95,0.15,4.43c-0.1,0.68-0.56,1.17-1.22,1.29c-0.74,0.14-1.49,0.05-1.98-0.66
		C288.22,241.8,287.77,240.88,287.96,239.8z"/>
	<path fill="#FFFFFF" d="M236.62,256.2c-2.07,0.18-4.39-0.42-6.74-0.42c-0.63,0-1.07-0.33-1.29-0.96c-0.25-0.72,0.07-1.26,0.85-1.27
		c2.28-0.03,4.51,0.38,6.75,0.69c0.98,0.14,1.95,0.33,2.91,0.54c0.47,0.1,1.05,0.15,1.01,0.86c-0.04,0.76-0.64,0.54-1.07,0.56
		C238.34,256.22,237.62,256.2,236.62,256.2z"/>
	<path fill="#FFFFFF" d="M230.91,262.78c-0.57-0.01-0.91-0.24-1.01-0.8c-0.11-0.68,0.32-1.03,0.84-1.19
		c1.35-0.41,2.72-0.76,4.08-1.11c0.82-0.21,1.66-0.41,2.49-0.55c0.4-0.07,0.84,0.11,0.93,0.54c0.06,0.25,0.24,0.62-0.23,0.86
		C235.76,261.63,233.29,262.08,230.91,262.78z"/>
	<path fill="#FFFFFF" d="M296.15,259.06c-0.35,0-0.59-0.01-0.83,0c-0.43,0.01-0.82,0.01-0.85-0.59c-0.03-0.54,0.16-0.93,0.71-1.04
		c1.38-0.29,2.77-0.57,4.16-0.81c0.58-0.1,0.99,0.15,1.06,0.78c0.06,0.57-0.01,1.17-0.71,1.23
		C298.47,258.73,297.28,259.15,296.15,259.06z"/>
	<path fill="#FFFFFF" d="M255.72,429.15c-6.77,0.24-12.61-0.77-18.26-2.82c-4.22-1.53-8.11-3.64-11.56-6.54
		c-3.54-2.97-6.55-6.38-8.54-10.59c-1.44-3.05-2.35-6.26-2.81-9.62c-0.37-2.69-0.5-5.38-0.35-8.07c0.19-3.45,0.67-6.87,1.46-10.25
		c0.63-2.69,1.36-5.34,2.39-7.91c0.05-0.12,0.15-0.25,0.13-0.37c-0.18-1.16,1.8-0.83,1.45-2.18c-0.28-1.09,0.6-1.87,1.11-2.7
		c0.52-0.84,1.16-1.62,1.68-2.45c1.35-2.14,3.39-3.41,5.46-4.66c3.96-2.4,8.21-4.13,12.7-5.22c2.15-0.52,4.34-0.89,6.56-1.15
		c2.74-0.33,5.49-0.57,8.23-0.54c4.02,0.05,8.02,0.36,12.02,0.95c6.38,0.94,12.61,2.45,18.79,4.26c3.66,1.07,7.32,2.11,10.74,3.84
		c2.99,1.51,5.37,3.76,7.35,6.41c3.1,4.14,4.76,8.92,5.7,13.94c0.6,3.17,0.86,6.41,0.63,9.64c-0.33,4.61-1.36,9.07-3.47,13.21
		c-2.19,4.29-5.32,7.78-9.21,10.63c-5.56,4.08-11.9,6.41-18.41,8.34c-3.79,1.13-7.62,2.08-11.54,2.7c-2.5,0.39-4.99,0.78-7.51,1.04
		C258.62,429.22,256.8,429.06,255.72,429.15z"/>
	<path fill="#FFFFFF" d="M310.52,352.89c-0.7-1.02-1.37-1.94-2.46-2.28c-1.78-0.54-3.47-1.28-5.42-1.36
		c-1.47-0.06-2.64,0.71-3.95,0.79c-2.08,0.12-3.43,1.34-4.74,2.62c-1.35,1.32-2.27,2.99-2.74,4.85c-0.13,0.51-0.3,0.75-0.81,0.52
		c-0.45-0.21-1.25-0.12-1.03-1c1.13-4.49,3.87-7.14,8.51-7.9c2.91-0.48,5.81-0.54,8.65,0.42c1.38,0.46,2.68,1.1,3.73,2.18
		C310.56,352.02,310.71,352.31,310.52,352.89z"/>
	<path fill="#FFFFFF" d="M215.55,363.75c-1.27-2.12-1.75-4.43-2.02-6.85c-0.23-2.06-0.14-4.03,0.43-6.02
		c0.57-1.98,1.74-3.53,3.36-4.82C214.45,351.74,214.56,357.7,215.55,363.75z"/>
	<path fill="#FFFFFF" d="M307.35,366.55c1.09-1.59,2.49-2.99,3.28-4.81c0.78-1.8,1.47-3.63,1.9-5.61c0.38,2.39,0.09,3.02-1.33,5.71
		C310.25,363.62,308.8,365.08,307.35,366.55z"/>
	<path fill="#FFFFFF" d="M301.45,363.12c0.87-0.05,1.59-0.2,2.04-0.99c0.22-0.38,0.48,0.04,0.67,0.12c0.28,0.12,0.04,0.31-0.08,0.46
		c-0.43,0.51-1.03,0.86-1.33,1.5C302.33,363.84,301.99,363.4,301.45,363.12z"/>
	<path fill="#FFFFFF" d="M226.4,342.2c-0.87,0.61-1.58,0.96-2.11,1.64C224.1,342.47,224.1,342.47,226.4,342.2z"/>
	<path fill="#FFFFFF" d="M232.25,342.3c-0.65,0.1-1.29,0.19-1.94,0.3c-0.19,0.03-0.44,0.28-0.42-0.19c0.01-0.26,0.03-0.42,0.37-0.45
		C230.94,341.91,231.54,342.33,232.25,342.3z"/>
	<path fill="#FFFFFF" d="M240.9,351.5c0.07,1.58,0.07,1.58-0.77,1.93C240.34,352.79,240.28,352.13,240.9,351.5z"/>
	<path fill="#FFFFFF" d="M234.39,351.46c0.68-0.06,1.45-0.77,1.76,0.55C235.64,351.56,234.91,352.05,234.39,351.46z"/>
	<path fill="#FFFFFF" d="M220.11,346.29c-0.44,0.86-0.88,1.72-1.32,2.59c0.17-1,0.46-1.94,1.35-2.56L220.11,346.29z"/>
	<path fill="#FFFFFF" d="M221.3,362.49c0.17-0.37,0.31-0.75,0.53-1.09c0.07-0.1-0.02-0.48,0.3-0.31c0.25,0.14,0.26,0.33,0.04,0.56
		c-0.27,0.28-0.49,0.6-0.73,0.9C221.4,362.53,221.35,362.51,221.3,362.49z"/>
	<path fill="#FFFFFF" d="M220.14,346.31c0.07-0.75,0.56-1.2,1.13-1.61c-0.32,0.58-0.56,1.2-1.16,1.58
		C220.11,346.29,220.14,346.31,220.14,346.31z"/>
	<path fill="#FFFFFF" d="M296.24,355.05c0.05,0.14,0.07,0.18,0.06,0.19c-0.2,0.38-0.44,0.71-0.89,0.8c-0.02,0-0.1-0.1-0.1-0.15
		C295.4,355.36,295.99,355.45,296.24,355.05z"/>
	<path fill="#FFFFFF" d="M229.59,355.22c0.1-0.41,0.18-0.82,0.67-0.71c0.08,0.02,0.14,0.14,0.21,0.22
		C230.17,354.88,229.88,355.05,229.59,355.22z"/>
	<path fill="#FFFFFF" d="M223.36,349.52c-0.05,0.46-0.24,0.73-0.53,0.95C222.87,350.13,222.91,349.78,223.36,349.52z"/>
	<g>
		<path fill="#26231E" d="M393.66,227.18c0.36,1.45-0.03,2.79-0.22,4.13c-0.21,1.48-0.34,2.97-0.53,4.46
			c-0.33,2.52-0.28,5.07-0.22,7.61c0.12,4.33,0.8,8.59,1.9,12.79c1.62,6.17,4.26,11.88,7.94,17.07c2.41,3.4,5.31,6.35,8.79,8.74
			c3.14,2.17,6.51,3.77,10.26,4.37c4.93,0.78,9.76,0.44,14.16-2.33c1.24-0.79,1.7-1.99,2.09-3.25c0.68-2.17,0.83-4.42,1.06-6.67
			c0.35-3.52,0.5-7.04,0.63-10.58c0.09-2.45,0.16-4.92,0.42-7.35c0.11-1.02-0.01-2.06,0.32-3.08c0.18-0.55,0.25-1.17-0.83-1.24
			c-0.92-0.06-1.68-0.88-2.41-1.48c-2.95-2.41-5.38-5.27-7.14-8.66c-1.22-2.35-0.94-4.11,1.98-4.74c2.19-0.48,4.17-1.59,6.35-2.08
			c2.68-0.61,5.38-0.79,8.08-0.3c1.48,0.27,2.12,1.65,2.17,2.82c0.2,4.66-1.47,8.68-4.38,12.22c-0.37,0.45-0.23,0.73-0.01,1.03
			c2.82,3.91,5.08,8.17,7.66,12.22c2.52,3.95,4.96,7.96,7.95,11.59c1.25,1.51,2.61,2.91,4.14,4.12c0.66,0.52,1.4,0.85,2.26,0.9
			c4.9,0.28,9.21-1.29,13.05-4.22c2.7-2.06,4.49-4.86,5.85-7.92c1.3-2.92,2.09-6.02,2.69-9.15c0.75-3.93,0.88-7.93,0.59-11.89
			c-0.39-5.45-1.69-10.74-3.84-15.79c-2.12-4.99-4.78-9.68-7.99-14.05c-1.48-2.02-3.11-3.92-4.74-5.82c-0.94-1.1-2.1-1.99-2.89-3.22
			c-0.1-0.16-0.29-0.4-0.44-0.4c-1.07,0-1.58-0.83-2.2-1.46c-1.82-1.84-3.93-3.27-6.1-4.65c-0.59-0.37-0.7,0-0.78,0.45
			c-0.23,1.26-0.16,2.51-0.03,3.78c0.07,0.61,0.62,0.53,0.79,0.54c1.03,0.06,1.12,0.73,1.06,1.47c-0.06,0.81-0.73,1.07-1.36,1
			c-1.35-0.14-2.69-0.14-4.04-0.19c-2.65-0.11-5.29,0.08-7.92,0.27c-3.54,0.25-7.07,0.71-10.59,1.33
			c-5.37,0.94-10.61,2.32-15.76,4.06c-5.81,1.96-11.34,4.56-16.7,7.51c-0.68,0.38-1.3,0.81-1.88,1.36
			c-0.52,0.49-1.47,0.65-2.29,0.55c-0.35-0.04-0.45-0.41-0.28-0.73c0.09-0.17,0.29-0.29,0.42-0.44c0.3-0.33,1.04-0.37,0.97-0.86
			c-0.14-0.97-0.63-1.86-1.1-2.72c-0.18-0.33-0.41,0.03-0.54,0.18c-1.15,1.25-2.16,2.6-2.87,4.15c-0.42,0.92-0.9,1.84-1.18,2.81
			c-0.29,1-0.97,1.02-1.71,0.89c-0.6-0.11-1.06-1.16-0.76-1.86c1.19-2.75,2.17-5.62,4.42-7.78c0.68-0.66,1.49-1.12,2.33-1.47
			c0.65-0.27,1.27-0.18,1.65,0.64c0.5,1.09,0.79,2.23,0.94,3.4c0.13,1.01,0.22,1.13,1.09,0.55c2.75-1.84,5.75-3.23,8.72-4.66
			c3.1-1.49,6.31-2.77,9.57-3.89c3.01-1.03,6.05-1.99,9.15-2.72c3.02-0.71,6.05-1.37,9.13-1.82c3.35-0.5,6.69-0.82,10.07-1.05
			c2.03-0.14,4.06-0.09,6.09-0.13c0.63-0.01,0.88-0.16,0.77-0.79c-0.34-1.84,0.03-3.64,0.19-5.47c0.14-1.61,0.79-2.08,2.27-1.42
			c1.91,0.85,3.66,1.96,5.3,3.25c0.46,0.36,0.89,0.71,1.57,0.77c0.65,0.06,1.04,0.74,1.41,1.23c0.82,1.09,1.85,1.97,2.78,2.95
			c4.61,4.86,8.73,10.11,12.02,15.96c2.2,3.9,4.09,7.95,5.38,12.25c0.96,3.2,1.67,6.44,2.03,9.78c0.18,1.71,0.3,3.44,0.29,5.11
			c-0.01,6.07-0.96,12.03-3.24,17.69c-1.28,3.18-2.99,6.13-5.45,8.57c-3.02,3-6.68,4.78-10.81,5.66c-2.11,0.45-4.28,0.78-6.35,0.14
			c-1.13-0.35-1.6,0.06-2.23,0.72c-1.59,1.67-3.76,2.28-5.84,3c-3.05,1.06-6.22,1.72-9.41,2.25c-0.96,0.16-1.94,0.17-2.91,0.22
			c-1.82,0.08-3.64,0.34-5.47,0.2c-1.11-0.09-2.32-0.03-2.98-1.21c-0.2-0.36-0.37-0.03-0.44,0.01c-3.37,1.72-6.97,2.3-10.71,2.22
			c-4.32-0.09-8.33-1.3-12.12-3.34c-2.14-1.15-4.04-2.63-5.9-4.2c-3.4-2.89-6.01-6.4-8.29-10.18c-2.52-4.19-4.37-8.68-5.66-13.39
			c-0.78-2.84-1.34-5.72-1.67-8.65c-0.31-2.69-0.49-5.38-0.36-8.07c0.22-4.31,0.67-8.59,2.24-12.67
			C393.25,227.82,393.48,227.51,393.66,227.18z"/>
		<path fill="#9594C8" d="M462.84,240.11c-1.57-0.2-2.95-0.35-3.83-1.66c-0.42-0.63-0.38-1.17,0.08-1.75
			c1.66-2.12,3.78-3.46,6.44-4.02c1.34-0.28,2.6-0.9,3.98-1.09c1.83-0.25,3.59-0.27,4.96,1.27c0.75,0.84,0.78,1.4-0.03,2.16
			c-2.96,2.8-6.44,4.47-10.52,4.83C463.49,239.89,463.1,240.21,462.84,240.11z"/>
		<path fill="#9594C8" d="M409.55,252.6c-0.66,0.11-1.71-0.34-2.3-1.45c-0.72-1.38-0.06-2.67,0.74-3.76
			c1.27-1.75,2.81-3.06,5.28-2.5c0.54,0.12,1.21-0.33,1.82-0.47c1.85-0.43,3.47,0.71,3.34,2.32c-0.05,0.6-0.33,1.15-0.67,1.56
			C415.81,250.7,413.41,252.4,409.55,252.6z"/>
		<path fill="#26231E" d="M459.3,220.97c-0.08-0.86,0.09-1.66,0.56-2.38c0.96-1.5,3.84-1.36,4.63,0.37
			c0.75,1.66,1.18,3.22,0.09,4.86c-1.19,1.81-4.17,1.83-4.87,0.18C459.32,223.06,459.35,222,459.3,220.97z"/>
		<path fill="#26231E" d="M410.05,237.23c0.1,0.78-0.15,1.59-0.6,2.36c-0.67,1.14-1.8,1.26-2.49,0.15
			c-0.47-0.75-1.41-1.05-1.66-2.02c-0.36-1.39,0.38-3.78,1.54-4.55c0.83-0.55,1.7-0.21,2.38,0.93
			C409.81,235.08,410.05,235.96,410.05,237.23z"/>
		<path fill="#FFFFFF" d="M441.39,276.85c-0.94,0.22-0.97-0.36-0.89-0.99c0.43-3.34,0.51-6.7,0.64-10.05
			c0.12-2.96,0.23-5.92,0.39-8.88c0.1-1.69,0.4-3.36,0.58-5.05c0.05-0.48,0.41-0.77,0.72-0.9c0.21-0.09,0.43,0.4,0.6,0.69
			c2.69,4.78,5.36,9.58,8.11,14.33c1.17,2.02,2.47,3.97,3.78,5.9c0.31,0.47,0.33,0.55-0.17,0.87c-3.02,1.89-6.26,3.13-9.8,3.69
			C444.02,276.68,442.66,276.33,441.39,276.85z"/>
		<path fill="#FFFFFF" d="M456.67,277.04c0.91,0,1.86,0.85,1.8,1.72c-0.08,1.11-0.96,2.27-1.84,2.18c-0.99-0.11-1.85-1.09-1.83-2.31
			C454.83,277.61,455.5,277.03,456.67,277.04z"/>
		<path fill="#FFFFFF" d="M447.65,281.18c0.01-0.86,0.52-1.29,1.53-1.29c1.05,0,1.76,0.71,1.74,1.75c-0.01,0.78-0.72,1.52-1.44,1.52
			C448.58,283.15,447.64,282.14,447.65,281.18z"/>
		<path fill="#FFFFFF" d="M443.8,244.47c0.61-2.49,0.34-5.02,0.37-7.57c1.19-0.23,1.89,0.42,1.63,1.8
			C445.42,240.69,444.89,242.64,443.8,244.47z"/>
		<path fill="#FFFFFF" d="M442.41,280.51c0.91-0.01,1.54,0.7,1.57,1.78c0.02,0.81-0.37,1.26-1.19,1.28
			c-0.95,0.03-1.82-0.79-1.83-1.71C440.94,281.12,441.59,280.52,442.41,280.51z"/>
		<path fill="#FFFFFF" d="M440.07,278.72c0.11-0.2,0.23-0.41,0.34-0.61c0.07,0.06,0.22,0.13,0.21,0.19
			C440.61,278.58,440.36,278.69,440.07,278.72z"/>
		<path fill="#FFFFFF" d="M460.25,278.12c0.04,0.15-0.1,0.13-0.16,0.13c-0.15,0.01-0.34,0.05-0.36-0.18c0-0.07,0.08-0.18,0.14-0.19
			C460.06,277.83,460.15,277.98,460.25,278.12z"/>
	</g>
	<path fill="#9594C8" d="M247.71,165.35c0.6,3.29,2.99,5.16,5.5,6.92c4.43,3.11,9.38,5.09,14.57,6.44c2.67,0.69,5.4,1.13,8.17,1.36
		c1.35,0.11,2.7,0.08,4.16,0.18c-0.45,1.06-1.39,1.63-2.1,2.39c-0.78,0.83-1.78,0.84-2.85,0.87c-5.99,0.21-11.58-1.24-16.87-3.92
		c-2.89-1.47-5.55-3.3-7.93-5.53c-0.81-0.76-1.7-1.41-2.34-2.34c-0.21-0.3-0.51-0.75-0.99-0.34c-0.46,0.38-0.08,0.79,0.13,1.07
		c1.87,2.44,3.99,4.65,6.47,6.48c3.15,2.32,6.58,4.1,10.33,5.26c2.91,0.9,5.89,1.41,9.04,1.62c-2.74,1.15-5.45,1.46-8.1,0.28
		c-0.78-0.35-1.66-0.7-2.34-1.3c-0.26-0.23-0.57-0.38-0.83-0.25c-1.16,0.6-2.2-0.02-3.22-0.33c-3.55-1.1-6.81-2.72-9.31-5.59
		c-1.76-2.02-2.76-4.33-3-7.01c-0.13-1.38-0.06-2.71,0.26-4.04c0.38-0.75,0.3-1.72,1.09-2.28
		C247.62,165.3,247.66,165.33,247.71,165.35z"/>
	<path fill="#9594C8" d="M280.99,177.75c-5.07,0.31-10.01-0.5-14.87-1.87c-3.17-0.9-6.19-2.16-9.14-3.59
		c-2.46-1.19-4.83-2.56-6.82-4.45c-0.68-0.64-1.38-1.37-1.75-2.3c-0.16-0.41-0.36-0.54-0.71-0.2l-0.06-0.05
		c-0.26-0.61,0.04-1.03,0.48-1.41c1.91,1.8,4.03,3.29,6.38,4.45c0.03,0.01,0.08,0.02,0.09,0.04c0.88,1.83,2.9,1.11,4.25,1.89
		c0.59,0.34,1.45,0.3,1.67,1.2c0.06,0.26,0.44,0.26,0.63,0.18c1.16-0.48,2.14,0.21,3.17,0.47c2.05,0.51,4.05,1.23,6.11,1.75
		c0.76,0.19,1.42,0.78,2.1,0.78c0.92,0.01,1.73,0.26,2.57,0.49c2.04,0.56,4.15,0.86,6.12,1.66
		C281.5,177.19,281.29,177.48,280.99,177.75z"/>
	<path fill="#9594C8" d="M277.28,158.58c-1.47,2.97-2.94,5.93-3.9,9.12c-0.35,1.17-0.68,2.35-0.96,3.54
		c-0.12,0.51-0.28,0.71-0.81,0.54c-0.66-0.21-1.33-0.44-2.02-0.52c-1.1-0.13-1.17-0.8-1.07-1.66c0.46-3.7,1.13-7.34,2.64-10.78
		c0.61-1.38,1.05-2.84,1.85-4.14c0.21-0.1,0.41-0.04,0.57,0.08C275.02,155.84,276.44,156.93,277.28,158.58z"/>
	<path fill="#9594C8" d="M272.01,153.92c-2.74,3.36-5.46,10.9-5.56,16.4c-1.18-0.16-2.27-0.62-3.42-0.87
		c-0.71-0.15-0.71-0.59-0.61-1.04c1.09-4.85,2.53-9.59,4.32-14.22c0.12-0.31,0.26-0.6,0.39-0.91c1.39-0.72,2.79-0.49,4.18-0.02
		C271.62,153.36,271.92,153.55,272.01,153.92z"/>
	<path fill="#9594C8" d="M280.6,165.33c-1.14,2.25-2.33,4.48-3.38,6.77c-0.37,0.81-0.73,1.05-1.52,0.7
		c-0.63-0.27-1.63-0.1-1.91-0.64c-0.25-0.49,0.13-1.31,0.25-1.98c0.69-3.8,2.02-7.38,3.85-10.78c1.22,1.2,1.82,2.75,2.43,4.3
		C280.52,164.21,280.94,164.71,280.6,165.33z"/>
	<path fill="#9594C8" d="M256.23,154.5c0.2,4.2,1.09,8.23,2.97,12.01c0.5,1.01,0.77,1.14,1.67,0.93c-0.22,1.23-0.22,1.23-1.36,0.83
		c-0.72-0.25-1.42-0.55-2.16-0.75c-1.09-0.29-1.36-1.23-1.63-2.08c-0.96-2.95-2.07-5.85-2.7-8.91
		C253.88,155.52,254.84,154.67,256.23,154.5z"/>
	<path fill="#9594C8" d="M260.52,153.48c0.16,2.06,0.21,4.24,1.45,5.93c0.99,1.36,0.51,2.5,0.18,3.76c-0.26,0.96-0.57,1.9-0.88,2.94
		c-1.29-2.5-2.34-5.03-2.95-7.73c-0.32-1.42-0.53-2.86-0.8-4.29C258.4,153.26,259.42,153.2,260.52,153.48z"/>
	<path fill="#FFFFFF" d="M272.01,153.92c-1.25-0.7-2.54-1.06-3.98-0.66c-0.28,0.08-0.6,0.01-0.9,0.02c0.28-0.79,0.55-1.59,0.85-2.38
		c0.09-0.25,0.33-0.51-0.05-0.65c-0.27-0.1-0.53-0.07-0.7,0.33c-0.41,0.93-0.92,1.81-1.38,2.71c-1.27,0.5-2.54,0.5-3.82,0
		c0.07-0.93,0.59-1.92-0.28-2.77c1.27-0.49,2.68-0.57,4.04-0.66c1.84-0.11,3.58,0.42,5.09,1.58c0.68,0.52,1.4,0.98,2.23,1.56
		C272.41,153.04,272.47,153.73,272.01,153.92z"/>
	<path fill="#9594C8" d="M252,157.76c0.64,2.71,1.3,5.41,2.22,8.3c-1.95-1.1-3.82-1.95-5.34-3.38c0.18-1.48,1.14-2.56,1.94-3.72
		C251.14,158.51,251.35,157.9,252,157.76z"/>
	<path fill="#9594C8" d="M262.02,153.27c1.27,0,2.54,0,3.82,0c-0.82,1.79-1.62,3.59-2.3,5.55c-0.77-1.58-1.36-3.1-1.36-4.79
		C262.18,153.78,262.08,153.53,262.02,153.27z"/>
	<path fill="#FFFFFF" d="M281.17,167.77c0.16-0.59,0.33-1.18,0.52-1.9c1.12,2.71,1.71,5.39,1.56,8.21
		c-0.02,0.37-0.16,0.48-0.49,0.43c-0.39-0.07-0.77-0.16-1.15-0.23c-0.19-0.25-0.3-0.53-0.29-0.85
		C281.36,171.54,281.19,169.66,281.17,167.77z"/>
	<path fill="#9594C8" d="M281.17,167.77c0.37,0.95,0.45,1.95,0.44,2.95c-0.01,1.18,0,2.37,0,3.55c-0.73-0.19-1.45-0.44-2.19-0.56
		c-0.58-0.09-0.77-0.23-0.5-0.82C279.7,171.2,280.42,169.48,281.17,167.77z"/>
	<path fill="#FFFFFF" d="M260.52,153.48c-1.01,0.16-2.04,0.21-3,0.61c-0.01-0.07,0-0.15-0.03-0.2c-0.78-1.22,0.09-1.64,0.99-2.04
		c0.68-0.31,1.38-0.58,2.05-0.92c0.47-0.24,0.52,0.08,0.41,0.33C260.63,151.97,260.87,152.78,260.52,153.48z"/>
	<path fill="#FFFFFF" d="M277.28,158.58c-1.11-1.06-1.98-2.34-3.27-3.22c-0.33-0.22-0.64-0.48-0.99-0.67
		c-0.04-0.43,0.09-0.9,0.42-1.05c0.33-0.15,0.68,0.25,0.94,0.5c1.09,1.08,2.05,2.26,2.98,3.49
		C277.69,158.07,277.54,158.28,277.28,158.58z"/>
	<path fill="#FFFFFF" d="M280.6,165.33c-0.51-1.94-1.39-3.71-2.45-5.4c-0.11-0.17-0.17-0.36-0.26-0.54
		c0.12-0.19,0.23-0.38,0.34-0.55c1.09,1.65,1.96,3.4,2.77,5.19C281.29,164.67,281.17,165.03,280.6,165.33z"/>
	<path fill="#FFFFFF" d="M252,157.76c-1.27,1.49-2.25,3.17-3.12,4.91c-0.4-0.02-0.66-0.09-0.39-0.59c0.87-1.63,1.92-3.13,3.16-4.51
		C251.99,157.2,251.96,157.55,252,157.76z"/>
	<path fill="#FFFFFF" d="M256.23,154.5c-1.2,0.47-2.13,1.37-3.2,2.04c-0.15-0.44,0.12-0.7,0.41-0.94c0.98-0.84,1.95-1.68,3-2.48
		C256.21,153.57,256.29,154.05,256.23,154.5z"/>
	<path fill="#FFFFFF" d="M248.12,163.89c-0.07,0.5-0.49,0.88-0.48,1.41c-0.39,0.76-0.77,1.51-1.16,2.27
		c0.09-1.35,0.66-2.55,1.17-3.77C247.89,163.24,247.98,163.76,248.12,163.89z"/>
	<path fill="#FFFFFF" d="M280.99,177.75c0.07-0.32,0.14-0.64,0.2-0.96c0.45-0.11,1.05,0.06,1.04,0.39
		C282.21,177.96,281.53,177.79,280.99,177.75z"/>
	<path fill="#F6C5CD" d="M318.39,154.47c-1.79,0.08-3.4-0.29-4.34-1.98c-0.27-0.48-0.61-0.51-0.98-0.41
		c-0.41,0.11-0.6,0.44-0.63,0.92c-0.04,0.65,0.19,1.26,0.21,1.89c0.06,1.82-0.31,3.55-0.99,5.24c-0.37,0.91-0.75,1.8-1.41,2.54
		c-0.75,0.58-1.58,0.65-2.33,0.13c-0.68-0.47-1.08-1.04-0.86-1.98c0.22-0.95,0.5-1.9,0.68-2.86c0.81-1.99,1.81-3.89,3.11-5.62
		c0.45-0.6,1.04-0.88,1.87-0.97c1.56-0.18,2.87-1.11,4.22-1.86c0.26-0.14,0.54-0.23,0.82-0.34c1.21,0.01,2.35-0.24,3.38-0.91
		c0.39-0.26,0.85-0.4,1.32-0.47c0.14,0,0.28,0,0.42,0c0.34,0.11,0.67,0.11,1.01,0c2.23-0.01,4.16,0.74,5.73,2.33
		c0.61,0.61,1.73,1.21,1.5,1.99c-0.23,0.77-1.49,0.74-2.33,0.98c-2.09,0.58-4.23,0.83-6.38,1.01c-0.59,0.05-1.17,0.32-1.78,0.17
		C319.84,153.92,319.13,154.37,318.39,154.47z"/>
	<path fill="#FFFFFF" d="M307.75,157.96c0.06,0.82-0.2,1.58-0.39,2.36c-0.41,1.73,0.55,2.78,2.33,2.54
		c0.19-0.03,0.38-0.12,0.57-0.19c-0.23,0.86-1.02,1.11-1.69,1.39c-0.45,0.19-0.92-0.1-1.23-0.6c-0.72-1.13-0.64-2.35-0.33-3.53
		C307.19,159.27,307.3,158.54,307.75,157.96z"/>
	<path fill="#FFFFFF" d="M322.47,147.79c-1.03,0.39-1.81,1.25-2.95,1.47c-0.62,0.12-1.18,0.22-1.76-0.09
		C319.25,148.46,320.78,147.87,322.47,147.79z"/>
	<path fill="#FFFFFF" d="M318.39,154.47c0.72-0.31,1.43-0.81,2.23-0.2C319.87,154.17,319.16,154.62,318.39,154.47z"/>
	<path fill="#FFFFFF" d="M323.9,147.79c-0.34,0.26-0.67,0.26-1.01,0C323.23,147.79,323.56,147.79,323.9,147.79z"/>
	<path fill="#26231E" d="M254.05,82.59c-0.1-2.24-0.68-4.27-1.83-6.18c-1.23-2.04-3.03-3.4-5.26-3.95c-2.79-0.7-5.52-0.19-8.13,1.09
		c-1.28,0.63-2.41,1.44-3.59,2.51c0.02-1.81-0.67-3.01-1.9-4.01c-1.99-1.61-4.21-1.72-6.37-0.78c-2.4,1.04-3.64,3.19-3.78,5.76
		c-0.18,3.16,1.13,5.77,3.53,7.8c0.87,0.74,1.87,1.31,1.35,2.7c-0.02,0.06-0.01,0.14,0,0.2c0.02,0.16,0.13,0.22,0.28,0.21
		c0.13-0.01,0.29,0.01,0.31-0.17c0.09-0.72,0.6-1.23,0.92-1.84c0.29-0.55,0.04-0.92-0.37-1.2c-1.16-0.8-2.22-1.69-3.05-2.85
		c-1.95-2.71-1.93-6.22,0.68-8.52c2.19-1.93,6.19-0.87,6.78,2.08c0.23,1.13-0.04,2.25,0.31,3.37c0.17,0.55,0.42,0.89,0.85,0.92
		c0.48,0.03,0.77-0.4,0.84-0.91c0.09-0.69,0.43-1.24,0.93-1.71c2.4-2.29,5.27-3.32,8.56-3.03c2.65,0.24,4.58,1.72,5.81,4
		c1.63,3.03,1.86,6.2,0.64,9.45c-1.27,3.38-5.21,4.54-7.1,1.79c-0.27-0.4-0.6-0.43-1.04-0.17c-0.42,0.25-0.81,0.55-0.61,1.01
		c0.21,0.48,0.02,0.84-0.11,1.2c-0.77,2.2-1.61,4.36-2.37,6.56c-1.44,4.19-2.92,8.36-4.23,12.59c-0.81,2.62-1.94,5.17-2.19,8
		c-2.22-1.51-3.74-3.74-5.65-5.57c-0.23-0.22-0.15-0.43-0.1-0.71c0.32-1.72,0.09-3.39-0.83-4.89c-1.01-1.63-2.47-2.62-4.43-2.87
		c-0.64-0.08-1.49-0.12-1.14-1.21c0.43-1.34,0.35-2.74,0.49-4.12c0.05-0.53-0.01-1.07-0.68-1.17c-0.74-0.11-0.92,0.44-1.02,1
		c-0.25,1.38-0.16,2.77-0.09,4.16c-0.01,0.32,0.39,0.73-0.23,0.91c-0.45,0.13-0.72,0.07-0.78-0.44c-0.54-1.75-0.98-3.52-1.13-5.34
		c-0.02-0.27-0.08-0.54-0.18-0.79c-0.18-0.44-0.45-0.78-0.98-0.71c-0.53,0.07-0.56,0.51-0.6,0.92c-0.11,1.13,0.18,2.21,0.42,3.31
		c0.24,0.91,0.56,1.8,0.9,2.68c0.12,0.31,0.32,0.67-0.05,0.91c-0.36,0.23-0.73,0.71-1.23,0.19c-0.98-1.21-2.01-2.37-2.9-3.66
		c-0.48-0.6-0.89-1.24-1.28-1.9c-0.86-1.22-1.59-2.53-2.29-3.84c-0.85-1.6-1.47-3.28-1.41-5.14c0.03-0.83,0.33-1.38,1.25-1.39
		c1.56,0.1,2.97,0.81,4.47,1.14c2.52,0.4,4.77-0.33,6.91-1.59c0.84-0.53,1.71-0.99,2.69-1.21c1.14-0.25,1.54,0.02,1.82,1.17
		c0.12,0.5,0.09,1.02,0.17,1.52c0.11,0.47,0.13,0.95,0.13,1.44c0.06,2.28-0.26,4.51-0.89,6.71c-0.11,1.06-0.8,1.95-0.87,3.02
		c0.05,0.65-0.37,1.13-0.64,1.64c-0.32,0.61-0.24,1.08,0.34,1.35c0.52,0.24,0.84-0.02,1.14-0.56c2.71-4.92,3.02-10.21,2.41-15.63
		c-0.22-1.92-1.81-2.86-3.67-2.46c-1.47,0.32-2.83,0.89-4.12,1.58c-2.3,1.24-4.58,1.49-7,0.44c-1.12-0.48-2.34-0.59-3.54-0.46
		c-2.23,0.26-2.78,2.39-2.43,4.56c0.42,2.6,1.69,4.88,3.1,7.08c1.64,2.57,3.69,4.77,5.86,6.87c0.19,0.19,0.36,0.4,0.53,0.61
		c-0.63,0.52-0.39,1.36-0.75,1.98c-1.25,2.16-0.92,5.02,0.87,6.81c0.39,0.39,0.49,0.74,0.31,1.19c-1.57,4.03-3.19,8.04-4.72,12.09
		c-1,2.66-2.47,5.15-3.02,7.98c-0.06,0.31-0.28,0.21-0.46,0.25c-1.61,0.34-3.17,0.76-4.62,1.61c-2.55,1.51-3.93,4.47-3.27,7.25
		c0.82,3.42,2.76,6.04,5.67,7.97c2.53,1.68,5.11,1.47,7.47-0.46c0.92-0.75,1.75-1.66,3.16-1.71c1.65-0.05,2.86,0.59,4.01,1.66
		c1.65,1.54,3.47,2.44,5.9,2.09c4.08-0.58,6.08-4.74,4.9-8.25c-0.92-2.75-2.88-4.58-5.22-6.07c-0.77-0.49-0.9-0.86-0.47-1.71
		c1.16-2.32,2.21-4.69,3.23-7.08c0.3-0.7,0.82-1.38,0.64-2.32c1.06,0.6,2.22,0.89,3.26,0.8c3.42-0.3,4.63-3.41,4.1-6.06
		c-0.42-2.12-1.74-3.67-3.15-5.21c0.75-0.24,0.97-0.92,1.18-1.5c2.07-5.8,4.11-11.62,6.15-17.43c0.83-2.38,1.64-4.77,2.48-7.15
		c0.18-0.51,0.35-0.91,1.15-0.55c2.42,1.09,5.51,0.06,7.02-2.14C253.77,87.8,254.18,85.3,254.05,82.59z M226.86,134.81
		c-0.51,1.35-0.99,2.71-1.44,4.08c-0.12,0.35-0.28,0.51-0.64,0.5c-0.39-0.02-0.79,0-0.8,0.53c-0.01,0.45-0.05,0.81,0.49,1.17
		c2.08,1.4,4.08,2.92,5.41,5.12c1.72,2.85-0.2,6.42-3.16,6.88c-2,0.31-3.45-0.66-4.7-1.92c-2.65-2.64-6.74-2.66-9.18,0.09
		c-1.52,1.72-3.55,1.39-5.25,0.41c-2.74-1.59-4.21-4.15-5.01-7.1c-0.37-1.36,0.23-3.63,1.86-4.84c1.29-0.95,2.61-1.8,4.1-2.34
		c1.19-0.43,1.68-1.44,2.08-2.4c2.52-5.98,4.96-11.99,7.38-18.01c0.2-0.5,0.28-0.5,0.74-0.34c1.96,0.65,2,0.62,1.96,2.7
		c-0.06,3.12-0.75,6.21-0.6,9.34c0.07,1.51,0.37,2.95,1.59,4.04c0.92,0.82,1.95,1.19,3.1,0.8c1.28-0.44,2.05-1.41,2.24-2.79
		c0-0.03,0-0.07,0-0.1c0.16-1.94,0.39-2.11,2.11-1.63C228.39,130.94,227.61,132.87,226.86,134.81z"/>
	<path fill="#9594C8" d="M231.13,127.97c-1.03-0.25-1.98-0.8-3.07-0.87c-0.25-0.11-0.53-0.12-0.78-0.23
		c-1.07-0.45-1.06-0.45-1.45,0.71c-0.16,0.48-0.25,0.99-0.47,1.45c-0.46,0.94-1.23,1.46-2.07,1.36c-0.97-0.12-1.34-0.8-1.57-1.65
		c-0.09-0.33-0.02-0.68-0.16-1c-0.16-2.46,0.4-4.88,0.38-7.33c-0.01-0.63,0.05-1.27-0.17-1.88c0.14-0.43,0.06-0.96,0.56-1.22
		c0.33-0.45,0.94,0.03,1.26-0.47c0.03,2.18,0.5,4.08,2.17,5.53c-0.57-1.86-0.75-3.82-1.48-5.64c0.23-0.06,0.66-0.24,1.04-0.59
		c0.5,1.47,1.43,2.67,2.2,3.96c0.1,0.16,0.25,0.37,0.49,0.22c0.3-0.19,0.34-0.45,0.16-0.78c-0.62-1.14-1.12-2.35-1.84-3.41
		c-0.62-0.92,0.34-0.97,0.59-1.39c0.32-0.54,0.61-0.12,0.86,0.14c1.65,1.69,3.45,3.22,5.18,4.82c1.29,1.19,2.49,2.53,2.95,4.33
		c0.3,1.17,0.32,2.31-0.5,3.32C234.1,128.45,232.63,128.33,231.13,127.97z"/>
	<path fill="#9594C8" d="M216.19,109.16c0.02-0.1,0.04-0.29,0.06-0.29c1.11,0.03,1.25-0.83,1.67-1.59c0.56-1.03,1.8-1.06,2.84-1.16
		c3.03-0.3,5.2,1.22,5.79,4.26c0.11,0.57,0.13,1.04-0.31,1.46c-0.26,0.44-0.94,0.77-0.41,1.44c-0.92,1.41-2.27,2.13-3.9,2.39
		c-1.36-0.83-2.87-1.42-4.1-2.47C216.6,112.13,215.92,110.83,216.19,109.16z"/>
	<path fill="#FFFFFF" d="M221.56,127.75c0.13,0.41,0.25,0.81,0.39,1.22c0.24,0.69,0.68,1.21,1.45,1.21c0.7,0,1.26-0.3,1.61-0.99
		c0.53-1.06,0.65-2.24,1.05-3.4c0.69,0.45,1.35,0.89,2,1.32c-2.11-0.04-2.04,0.48-2.41,2.61c-0.11,0.65-0.38,1.2-0.67,1.73
		c-0.52,0.95-1.98,0.75-2.61-0.38C221.79,130.05,221.4,128.96,221.56,127.75z"/>
	<path fill="#FFFFFF" d="M216.19,109.16c-0.02,2.55,1.59,3.94,3.59,5.06c0.76,0.42,1.66,0.62,2.15,1.45
		c-3.4,0.21-6.34-3.07-5.89-6.39C216.05,109.23,216.14,109.2,216.19,109.16z"/>
	<path fill="#FFFFFF" d="M226.19,89.76c-0.84-1.72-2.53-1.38-3.97-1.62c-0.29-0.05-0.6-0.02-0.9-0.03c0.69-0.49,1.44-0.84,2.24-1.1
		c1.78-0.57,2.48-0.12,2.66,1.74C226.25,89.08,226.2,89.42,226.19,89.76z"/>
	<path fill="#FFFFFF" d="M225.43,98.14c-0.13-1.93,0.36-3.83,0.18-5.76c-0.06-0.62,0.63-0.72,0.79-1.18
		C226.54,93.58,226.22,95.89,225.43,98.14z"/>
	<path fill="#FFFFFF" d="M216.41,104.9c1.14-0.41,1.21-0.58,0.86-1.77c-0.33-1.14-1.07-2.11-1.4-3.26c0.45,0.45,0.79,0.99,1.32,1.33
		c0.24,0.67,0.46,1.34,0.72,1.99c0.59,1.48,0.6,1.47-0.81,2.11C216.66,105.51,216.61,105.09,216.41,104.9z"/>
	<path fill="#FFFFFF" d="M214.38,89.74c-1.62,0.1-3.26,0.22-4.49-1.17c0.94-0.17,1.72,0.34,2.57,0.57
		C213.1,89.32,213.74,89.54,214.38,89.74z"/>
	<path fill="#FFFFFF" d="M231.13,127.97c1.45,0.01,2.91,0.02,4.26-0.63c-0.89,1.18-1.77,1.45-3.12,1.05
		C231.87,128.28,231.47,128.22,231.13,127.97z"/>
	<path fill="#FFFFFF" d="M219.31,103.86c0.54,0.07,0.97-0.18,1.4-0.44c0.33,0.21,0.27,0.68,0.13,0.74
		c-0.43,0.18-0.93,0.28-1.39,0.28C219.14,104.43,219.31,104.07,219.31,103.86z"/>
	<path fill="#FFFFFF" d="M225.82,113.28c-0.25-0.15-0.5-0.31-0.79-0.49c0.43-0.34,0.81-0.65,1.2-0.95
		C225.91,112.27,226.21,112.87,225.82,113.28z"/>
	<path fill="#FFFFFF" d="M212.33,99.38c0.91,0.27,0.95,1.12,1.21,1.82C213,100.68,212.59,100.08,212.33,99.38z"/>
	<path fill="#FFFFFF" d="M222.32,117.33c-0.19,0.41-0.37,0.81-0.56,1.22C221.91,118.12,221.23,117.32,222.32,117.33z"/>
	<path fill="#FFFFFF" d="M216.9,192.98c0.18,0.61,0.14,1,0,1.41C216.9,194.01,216.9,193.63,216.9,192.98z"/>
	<path fill="#FFFFFF" d="M217.77,94.14c-0.51-0.5-0.51-1.31-1.17-1.71c0.52-0.4,1.06-0.39,1.64-0.53
		C218.06,92.65,218.09,93.41,217.77,94.14z"/>
	<path fill="#FFFFFF" d="M215.03,92.63c-0.13,0.28-0.1,0.68-0.51,0.62c-0.09-0.01-0.16-0.19-0.24-0.3
		C214.53,92.85,214.78,92.74,215.03,92.63z"/>
	<path fill="#FFFFFF" d="M220.9,91.49c-0.02,0.05-0.06,0.13-0.1,0.21c-0.12-0.1-0.27-0.18-0.36-0.3c-0.08-0.1,0.02-0.17,0.12-0.18
		C220.74,91.19,220.87,91.25,220.9,91.49z"/>
	<g>
		<path fill="#26231E" d="M484.23,302.3c2.23-0.9,4.32-1.23,6.46,0.07c2.39,1.45,2.92,4.5,0.94,6.99c-2.31,2.91-5.17,5.17-8.4,7
			c-2.69,1.53-5.58,2.48-8.57,3.11c-0.66,0.14-1.39,0.2-2.08,0.28c-1.16,0.13-1.76-0.94-1.34-1.97c0.15-0.37,0.18-0.66,0.09-0.95
			c-0.78-2.55-0.68-5.13-0.41-7.75c0.26-2.53,0.98-4.91,2.09-7.16c1.03-2.1,2.53-3.82,4.81-4.62c3.26-1.14,6.71,0.98,6.41,4.43
			C484.22,301.89,484.23,302.06,484.23,302.3z"/>
		<path fill="#F6C5CD" d="M481.34,301.95c0.17,1.22-0.42,2.27-0.82,3.33c-0.34,0.91-0.05,1.54,0.61,2c0.67,0.46,1.32,0.18,1.9-0.33
			c1.15-1,2.31-1.99,3.83-2.42c0.86-0.25,1.65-0.17,2.32,0.43c0.93,0.83,0.98,1.24,0.27,2.3c-1.74,2.61-4.22,4.46-6.81,6.08
			c-2.77,1.74-5.82,2.89-9.05,3.57c-0.75,0.16-0.73-0.24-0.77-0.58c-0.07-0.57,0-1.15,0.01-1.73c0.4-1.41,0.59-2.85,0.71-4.3
			c0.08-1,0.57-1.82,0.97-2.66c0.92-1.9,2.02-3.7,3.38-5.33C478.96,301.04,479.92,300.94,481.34,301.95z"/>
		<path fill="#FFFFFF" d="M481.34,301.95c-2.04-1.05-3.16,0.15-4.18,1.68c-1.22,1.83-2.36,3.72-3.15,5.78
			c-0.4,1.05-0.42,2.24-0.55,3.36c-0.08,0.71-0.27,1.28-0.64,1.83c-0.3-4.87,0.99-9.28,3.92-13.19c0.62-0.82,1.5-1.43,2.59-1.5
			C480.58,299.84,481.35,300.65,481.34,301.95z"/>
	</g>
	<g>
		<path fill="#26231E" d="M69.47,191.45c-2.2-1.83-3.7-4.11-4.29-6.91c-0.46-2.18-0.42-4.34,0.79-6.35c0.88-1.46,3.3-2.1,4.71-0.51
			c0.69,0.78,1.55,1.41,2.15,2.27c1.01-1.79,2.15-3.44,4.32-4.06c2.82-0.82,5.63,0.32,6.29,2.92c0.3,1.18,0.13,2.36-0.23,3.54
			c-1.24,4.03-3.12,7.74-5.66,11.1c-0.51,0.67-1.13,1.28-1.8,1.8c-0.94,0.75-2.19,0.24-2.45-0.93c-0.88-0.76-1.97-1.17-2.89-1.86
			C70.03,192.18,69.6,191.96,69.47,191.45z"/>
		<path fill="#F6C5CD" d="M69.47,191.45c1.11,0.89,2.26,1.71,3.58,2.25c0.41,0.17,0.24,0.4,0.25,0.63
			c-0.85-0.02-1.63-0.33-2.53-0.29C69.47,194.11,68.94,192.87,69.47,191.45z"/>
		<path fill="#F6C5CD" d="M77.64,187.19c-0.5,1.54-1.63,2.68-2.5,4c-0.05,0.08-0.15,0.14-0.21,0.22c-1.04,1.33-1.05,1.34-2.27,0.1
			c-1.54-1.57-2.99-3.21-3.97-5.21c-0.14-0.29-0.33-0.58-0.27-0.94c-0.19-0.98-0.47-1.96-0.38-2.97c0.04-0.43,0.09-0.89,0.63-1.04
			c0.52-0.14,0.81,0.16,1.1,0.52c0.42,0.54,0.8,1.09,0.86,1.81c0.31-0.07,0.55-0.32,0.87-0.18c0.65,0.43,0.97,1.35,2.07,1.07
			c0.74-0.19,1.14-0.57,1.4-1.23c0.54-1.34,1-2.73,2.15-3.73c0.33-0.29,0.65-0.56,1.1-0.61c0.75,0.14,0.69,0.76,0.7,1.26
			C78.98,182.65,78.65,184.99,77.64,187.19z"/>
		<path fill="#FFFFFF" d="M77.64,187.19c0.31-1.6,0.72-3.19,0.91-4.81c0.13-1.12,0.47-2.33-0.32-3.39c1.53-0.54,2.32,0.14,2.06,1.74
			c-0.37,2.23-1.43,4.19-2.34,6.21C77.9,187.05,77.75,187.11,77.64,187.19z"/>
		<path fill="#FFFFFF" d="M71.51,183.49c-0.37,0.15-0.69,0.39-0.97,0.69c-0.19-0.86-0.42-1.67-1-2.31
			c-0.23-0.25-0.46-0.49-0.87-0.32c-0.38,0.16-0.42,0.44-0.46,0.8c-0.1,1.02,0.21,2,0.2,3.01c-0.73-1.7-0.78-3.39,0.06-5.22
			C69.54,181.31,70.53,182.4,71.51,183.49z"/>
	</g>
	<path fill="#FFFFFF" d="M318.33,314.98c1.88,0.28,3.85,0.27,5.38,1.68c1.05,0.96,2.08,1.95,2.45,3.41
		c0.16,0.61,0.87,0.67,1.19,1.16c0.8,1.21,1.31,2.55,1.42,3.94c0.13,1.74,0.28,3.5-0.16,5.24c-0.46,1.83-2.11,3.27-3.7,2.97
		c-1.5-0.28-2.52-1.3-3.16-2.65c-0.63-1.33-1.16-2.71-1.74-4.07c-0.61-1.43-1.79-2.18-3.13-2.86c-0.85-0.43-1.74-0.54-2.6-0.81
		c-2.43-0.77-2.79-3.48-1.62-5.21C314.02,315.77,316.06,315.18,318.33,314.98z"/>
	<path fill="#FFFFFF" d="M281.52,107.81c-0.11,1.36,0.2,2.51,1.54,3.1c1.33,0.58,2.43,0.09,3.54-1.13
		c-0.49,1.48-1.39,2.16-2.56,2.41c-1.01,0.22-1.83-0.31-2.41-1.11C280.88,110.05,280.74,108.95,281.52,107.81z"/>
	<path fill="#FFFFFF" d="M196.88,187.75c-0.49,0-0.75,0-1.25,0C196.16,187.55,196.44,187.53,196.88,187.75z"/>
	<path fill="#FFFFFF" d="M206.7,181.63c-0.42-0.65-0.83-1.3-1.29-2.01C206.68,179.8,206.49,180.85,206.7,181.63z"/>
	<path fill="#FFFFFF" d="M217.41,178.57c0.41,0.19,0.96,0.35,0.78,1.11C217.89,179.25,217.65,178.91,217.41,178.57z"/>
	<path fill="#FFFFFF" d="M336.93,311.82c-0.27,0.49-0.19,0.93,0.04,1.37c0.22,0.41,0.43,0.82,0.62,1.24
		c0.34,0.76,0.78,1.61,0.01,2.28c-0.76,0.66-1.74,0.8-2.71,0.41c-1.29-0.52-1.78-1.21-1.8-2.35c-0.02-1.19,0.81-2.13,1.87-2.57
		C335.54,311.95,336.16,311.59,336.93,311.82z"/>
	<path fill="#FFFFFF" d="M326.84,311.55c-1.26-0.01-3.29-1.64-3.55-2.84c-0.08-0.36,0.08-0.67,0.25-0.94
		c0.61-0.98,2.8-1.71,3.88-1.31c0.92,0.34,1.38,1.23,2.14,1.77c0.32,0.22-0.02,0.82-0.15,1.22
		C329.02,310.64,327.89,311.56,326.84,311.55z"/>
	<path fill="#FFFFFF" d="M338.89,323.58c1.19,0.18,2.27,0.42,2.84,1.76c0.5,1.16,0.51,2.18-0.33,3.13
		c-0.93,1.05-2.09,1.31-3.44,0.87c-0.73-0.24-1.38-0.53-1.97-1.07c-1.65-1.5-0.86-3.03,0.53-4.01
		C337.18,323.78,337.99,323.47,338.89,323.58z"/>
	<path fill="#FFFFFF" d="M313.69,307.28c-0.16-0.65,0.41-0.98,0.82-1.33c0.46-0.39,0.74,0.24,0.98,0.41
		c0.49,0.36,0.97,0.8,1.29,1.38c0.43,0.78,0.31,1.25-0.53,1.52C315.11,309.62,313.68,308.55,313.69,307.28z"/>
	<g>
		<path fill="#26231E" d="M400.25,65.25c2.56,1.53,3.29,4.24,4.27,6.76c0.41,1.05,0.54,2.2,0.41,3.41c2.42-0.76,4.85-0.68,7.25-0.52
			c2.27,0.15,4.53,0.64,6.78,1.03c2.44,0.43,4.87,0.9,7.3,1.38c3.08,0.61,6.15,1.22,9.22,1.86c2.74,0.57,5.49,1.17,8.18,1.89
			c3.32,0.88,6.65,1.76,9.97,2.68c2.28,0.63,4.51,1.4,6.86,1.81c1.22,0.21,2.37,1.06,3.57,1.58c0.63,0.28,1.26,0.56,1.9,0.82
			c0.9,0.37,1.59,0.24,2.13-0.64c1.04-1.68,2.23-3.25,3.68-4.59c1.55-1.44,3.22-2.51,5.51-2.61c2.52-0.11,4.14,1.87,4.48,3.93
			c0.39,2.36,0.46,4.75,0.43,7.14c-0.01,0.48-0.19,0.91-0.25,1.38c-0.17,1.37,0.72,2.44,0.96,3.7c0.48,2.5,0.98,4.99,1.35,7.51
			c0.57,3.95,0.39,7.9,0.33,11.85c-0.03,2.42-0.4,4.84-0.9,7.22c-0.13,0.62-0.11,0.81,0.59,0.84c3.51,0.16,7,0.43,10.48,0.98
			c1.96,0.31,3.92,0.61,5.86,1.01c0.39,0.08,0.64,0.3,0.97,0.44c0,0.48,0,0.95,0,1.43c-0.66,0.7-1.45,0.62-2.28,0.4
			c-2.81-0.75-5.69-1.18-8.56-1.66c-2.31-0.39-4.65-0.37-6.95-0.78c-0.51-0.09-0.72,0.22-0.78,0.56c-0.4,2.14-1.07,4.2-1.81,6.24
			c-0.14,0.38-0.02,0.45,0.38,0.57c5.28,1.57,10.32,3.69,15.2,6.25c0.76,0.4,0.51,0.97,0.47,1.47c-0.04,0.58-0.6,0.38-0.98,0.44
			c-0.52,0.08-0.91-0.22-1.29-0.44c-4.35-2.49-8.93-4.46-13.65-6.14c-0.76-0.27-0.95-0.07-1.2,0.54c-0.56,1.37-1.24,2.69-2.09,3.91
			c-0.38,0.54-0.27,0.77,0.27,1.12c2.39,1.53,4.62,3.28,6.64,5.29c0.52,0.52,0.7,1.07,0.19,1.54c-0.49,0.45-1.09,0.46-1.68-0.12
			c-1.95-1.93-4.08-3.65-6.29-5.28c-0.5-0.37-0.83-0.31-1.26,0.18c-1.73,1.98-3.91,3.41-6.23,4.59c-2.55,1.31-5.3,2.12-8.09,2.75
			c-3.04,0.68-6.12,1.18-9.23,1.47c-1.98,0.18-3.94,0.42-5.93,0.38c-0.43-0.01-0.63,0.1-0.87,0.58c-1.46,2.96-3.93,4.8-7.18,5.03
			c-1.19,0.08-1.73,0.24-2.45,1.18c-2.5,3.27-7.32,5.1-11.37,2.93c-2.1-1.13-3.77-3.78-3.09-6.38c0.13-0.49-0.16-0.71-0.55-0.89
			c-2.57-1.18-4.07-3.19-4.53-5.96c-0.05-0.32-0.19-0.32-0.44-0.39c-3.19-1.02-6.32-2.25-9.31-3.74c-3.13-1.56-6.14-3.34-8.89-5.53
			c-1.55-1.24-3.1-2.47-4.46-3.9c-3.35-3.53-6.23-7.4-7.96-12c-0.17-0.44-0.32-0.6-0.79-0.48c-4.27,1.06-8.56,2.07-12.78,3.34
			c-0.63,0.19-1.34,0.25-1.56-0.61c-0.2-0.8,0.2-1.16,1.01-1.38c3.04-0.84,6.1-1.62,9.18-2.32c1.19-0.27,2.39-0.53,3.6-0.7
			c0.59-0.08,0.51-0.23,0.38-0.7c-0.63-2.21-1.12-4.44-1.11-6.75c0-1.4-0.37-1.69-1.8-1.77c-4.12-0.24-8.24-0.5-12.37-0.41
			c-0.63,0.01-1.19-0.16-1.17-1.03c0.02-0.83,0.45-1,1.18-1.01c2.78-0.06,5.56,0.01,8.33,0.25c1.62,0.14,3.27,0.15,4.86,0.56
			c0.48,0.12,0.71,0.01,0.81-0.63c0.27-1.78,0.07-3.6,0.54-5.36c0.09-0.33-0.17-0.43-0.46-0.53c-2.03-0.69-4.09-1.24-6.2-1.62
			c-1.56-0.29-3.12-0.55-4.69-0.8c-0.61-0.09-0.94-0.38-0.87-1c0.07-0.67,0.57-0.7,1.1-0.66c3.45,0.24,6.8,0.98,10.06,2.1
			c1.3,0.45,1.22,0.43,1.51-0.95c0.66-3.22,1.35-6.44,2.23-9.62c0.97-3.51,2.03-6.99,3.28-10.41c0.4-1.11,0.86-2.19,1.52-3.2
			c0.52-0.79,0.47-1.82,0.92-2.68c1.55-2.95,3.51-5.57,6.14-7.66c0.27-0.21,0.67-0.11,0.82-0.47
			C399.43,65.25,399.84,65.25,400.25,65.25z"/>
		<path fill="#FFFFFF" d="M480.55,125.52c-0.52,2.09-1.07,4.1-1.81,6.07c-0.14,0.37-0.1,0.42-0.54,0.31
			c-2.53-0.61-5.08-1.14-7.63-1.68c-0.33-0.07-0.69-0.06-1.02-0.01c-0.3,0.05-0.79-0.3-0.85,0.35c-0.06,0.58,0.37,0.63,0.76,0.72
			c1.41,0.32,2.83,0.62,4.24,0.96c1.31,0.32,2.6,0.68,3.91,1.01c0.36,0.09,0.46,0.18,0.31,0.59c-0.52,1.4-1.27,2.67-2.01,3.95
			c-0.23,0.39-0.41,0.54-0.93,0.25c-2.08-1.14-4.23-2.12-6.55-2.68c-0.41-0.1-1.1-0.32-1.24,0c-0.28,0.63,0.5,0.61,0.85,0.8
			c1.9,1.05,3.81,2.08,5.75,3.08c0.65,0.33,0.77,0.54,0.19,1.12c-3.06,3.07-6.87,4.74-10.92,5.96c-2.85,0.86-5.78,1.38-8.72,1.8
			c-1.65,0.24-3.33,0.34-5,0.48c-2.79,0.23-5.59,0.49-8.38,0.35c-3.11-0.15-6.21-0.36-9.31-0.75c-5.79-0.73-11.4-2.12-16.87-4.13
			c-5.29-1.94-10.25-4.47-14.69-8c-4.5-3.59-8.25-7.76-10.74-13c-0.32-0.68-0.57-1.39-0.87-2.08c-0.18-0.43-0.1-0.55,0.39-0.63
			c1.04-0.15,2.08-0.31,3.05-0.74c0.35-0.16,0.79-0.34,0.71-0.72c-0.08-0.38-0.46-0.58-0.95-0.57c-1.07,0.03-2.14,0-3.18,0.36
			c-0.51,0.17-0.82,0.16-0.99-0.61c-0.47-2.11-0.91-4.21-0.97-6.39c-0.02-0.66,0.16-0.77,0.81-0.64c1.56,0.31,3.04,0.81,4.52,1.36
			c0.18,0.06,0.35,0.41,0.59,0.08c0.2-0.28,0.14-0.58-0.03-0.8c-0.5-0.64-1.09-1.2-1.87-1.46c-1.09-0.37-2.18-0.78-3.33-0.86
			c-0.55-0.04-0.66-0.29-0.68-0.78c-0.06-1.65,0.11-3.28,0.29-4.95c2.33,0.77,4.29,2.2,6.48,3.16c0.29,0.13,0.63,0.58,0.92,0.05
			c0.23-0.43-0.24-0.59-0.46-0.77c-1.79-1.48-3.69-2.79-5.86-3.66c-0.73-0.29-0.87-0.8-0.74-1.43c0.59-2.87,1.1-5.77,1.86-8.6
			c1.05-3.93,2.29-7.81,3.46-11.71c0.39-1.29,0.68-2.61,1.07-3.89c0.41-1.35,1.24-2.6,2-3.83c1.04-1.66,2.27-3.19,3.57-4.67
			c0.46-0.53,0.71-0.52,1.2,0.12c1.57,2.04,2.34,4.39,2.98,6.82c0.12,0.44,0.25,0.88,0.43,1.3c0.1,0.23,0.25,0.32,0.62,0.23
			c3.62-0.83,7.21-0.29,10.78,0.41c0.65,0.13,1.3,0.26,2,0.39c-0.89,1.61-1.29,3.42-1.53,5.22c-0.2,1.59,0.26,3.17,1.14,4.53
			c0.44,0.67,0.79,1.41,1.58,1.87c1.49,0.87,2.55,0.81,3.76-0.35c2.09-2,3.42-4.42,4.17-7.2c0.15-0.55,0.08-1.07,0.12-1.6
			c0.02-0.36,0.05-0.59,0.51-0.48c2.37,0.55,4.75,1.08,7.13,1.63c0.17,0.04,0.32,0.17,0.45,0.24c-1.63,2.17-2.34,4.7-2.97,7.26
			c-0.56,2.25-0.68,4.45,0.42,6.59c1.68,3.28,5.84,3.32,8.13,1.36c2.04-1.76,2.68-4.18,3.3-6.62c0.46-1.82,0.84-3.66,1.23-5.49
			c0.09-0.43,0.33-0.58,0.72-0.47c1.68,0.46,3.35,0.92,5.02,1.41c0.26,0.08,0.62,0.07,0.28,0.67c-1.16,2.08-1.88,4.31-2.19,6.71
			c-0.23,1.75-0.11,3.37,0.47,4.99c0.65,1.82,1.95,3.04,3.84,3.3c1.96,0.27,3.59-0.6,4.72-2.22c1.69-2.4,2.38-5.23,3.27-7.97
			c0.72-2.21,0.7-2.19,2.75-1.21c1.33,0.64,2.65,1.22,4.24,0.85c1.38-0.32,2.08-1.28,2.83-2.31c1.18-1.63,2.16-3.43,3.89-4.6
			c0.72-0.49,1.48-0.95,2.31-1.05c1.5-0.18,2.44,0.66,2.54,2.59c0.15,2.95,0.14,5.93-0.01,8.88c-0.06,1.18-0.15,2.11,0.75,3.11
			c0.54,0.6,0.56,1.72,0.71,2.63c0.42,2.59,0.86,5.17,1.08,7.8c0.24,2.75,0.19,5.49,0.12,8.22c-0.06,2.25-0.5,4.5-0.79,6.74
			c-0.07,0.56-0.32,0.88-1.03,0.86c-2.99-0.07-5.97,0.2-8.94,0.58c-0.48,0.06-0.64,0.25-0.65,0.71c-0.01,0.52,0.25,0.93,0.72,0.91
			c1.31-0.04,2.62,0.04,3.94-0.11C476.94,125.36,478.73,125.52,480.55,125.52z"/>
		<path fill="#F08D05" d="M430.07,151.84c0.9,0.05,0.87-0.54,0.76-1.15c-0.03-0.19-0.24-0.37,0.09-0.46
			c0.23-0.06,0.36,0.04,0.4,0.31c0.13,0.82,0.76,1.06,1.46,1.09c1.6,0.06,2.45,1.05,1.97,2.51c-0.72,2.17-3.38,4.5-5.68,4.68
			c-1.88,0.18-3.36-0.63-4.7-1.84c-2-2.52-0.04-5.78,2.72-6.19c1.09-0.16,2.05-0.31,2.85,0.61c0.1,0.11,0.11,0.3,0.16,0.46
			c-0.84,0.06-1.25,0.58-1.44,1.34c-0.08,0.3-0.22,0.57-0.31,0.87c-0.24,0.8-0.73,1.19-1.58,1.11c-0.27-0.02-0.55-0.02-0.81,0.07
			c-0.21,0.07-0.36,0.2-0.38,0.43c-0.02,0.23,0.1,0.43,0.31,0.48c0.82,0.19,1.51,0.58,2.07,1.2c0.04,0.04,0.08,0.04,0.09,0.04
			c0.09,0.03,2.71-0.95,2.75-1.03c0.2-0.44-0.01-0.76-0.39-0.9c-0.72-0.28-0.79-0.79-0.56-1.4
			C430.09,153.33,429.9,152.57,430.07,151.84z"/>
		<path fill="#FFFFFF" d="M443.02,151c-1.25,2.46-3.5,3.29-5.72,4.37c0.42-1.58,0.6-3.08-0.24-4.51
			C439.06,150.65,440.96,151.21,443.02,151z"/>
		<path fill="#FFFFFF" d="M418.02,147.56c2.38,0.67,4.69,1.27,7.06,1.71c0.04,0.34-0.32,0.32-0.52,0.42c-1,0.51-1.8,1.26-2.37,2.21
			c-0.2,0.34-0.38,0.48-0.68,0.25C419.94,150.97,418.52,149.67,418.02,147.56z"/>
		<path fill="#FFFFFF" d="M424.36,156.98c1.07,0.46,2,1.23,3.14,1.55c0.51,0.14,1.02,0.3,1.56,0.29
			C427.34,159.35,425.04,158.45,424.36,156.98z"/>
		<path fill="#FFFFFF" d="M435.1,87.04c-0.47,0.47-0.94,0.93-1.55,1.53c0.08-0.64,0.05-1.19,0.23-1.65
			C434.19,85.86,434.65,87.75,435.1,87.04z"/>
		<path fill="#FFFFFF" d="M418.47,82.05c-0.2,0.47-0.3,0.71-0.4,0.96c-0.08-0.04-0.22-0.07-0.23-0.13
			C417.75,82.53,417.94,82.33,418.47,82.05z"/>
		<path fill="#FFFFFF" d="M418.37,84.73c0.48-0.11,0.59,0.1,0.66,0.33c0.01,0.05-0.09,0.19-0.15,0.19
			C418.53,85.27,418.69,84.86,418.37,84.73z"/>
		<path fill="#26231E" d="M434.63,117.51c-0.29,0.66-0.79,1.07-1.24,1.52c-1.16,1.16-2.34,1.27-3.73,0.35
			c-1.62-1.07-2.44-3.13-1.87-4.75c0.06-0.18-0.1-0.59,0.27-0.52c0.22,0.04,0.56,0.1,0.6,0.54c0.08,0.93,0.41,1.81,1.02,2.52
			c1.07,1.26,1.83,1.25,2.63-0.03c0.53-0.83,0.96-1.72,1.43-2.58c0.17-0.32,0.15-0.48-0.26-0.72c-1.48-0.86-2.43-2.04-2.2-3.92
			c0.15-1.22,0.81-2.09,1.64-2.86c1.73-1.62,3.83-2.25,6.16-1.93c1.48,0.2,2.83,1.71,3.04,3.13c0.24,1.57-0.61,3.12-2.12,3.99
			c-0.91,0.52-1.8,1.08-2.69,1.65c-0.51,0.32-0.34,0.88-0.28,1.3c0.22,1.71,1.68,3.32,3.14,3.57c1.12,0.19,3.4-0.58,4.21-2.27
			c0.23-0.47,0.42-0.97,0.83-1.34c0.45-0.4,0.93-0.33,1.41-0.15c0.49,0.19,0.86,0.47,0.82,1.1c-0.09,1.53-0.87,2.69-1.95,3.67
			c-2.87,2.63-6.93,2.42-9.35-0.17C435.6,119.01,435.18,118.28,434.63,117.51z"/>
		<path fill="#F08D05" d="M462.32,118.14c1.54,0.08,3.04,0.28,4.05,1.66c1.39,1.9,0.95,4.03-1.18,4.99
			c-2.15,0.96-4.41,0.89-6.59,0.05c-2.3-0.89-3.01-3.09-0.73-4.96C459.17,118.82,460.55,118,462.32,118.14z"/>
		<path fill="#F08D05" d="M407.04,109.37c-1.81,0.07-3.12-0.71-4.16-1.98c-1.01-1.22-0.72-2.91,0.6-3.8
			c2.49-1.69,6.19-0.27,7.08,1.48c0.84,1.65,0.04,3.63-1.73,4.07C408.22,109.29,407.6,109.51,407.04,109.37z"/>
		<path fill="#26231E" d="M456.85,108.53c-0.4-2.15,2.25-4.09,4.67-3.18c1.02,0.38,1.65,1.78,1.29,2.86
			c-0.37,1.1-0.84,2.2-1.76,2.91c-0.94,0.72-2,0.56-3.04-0.05C457,110.47,456.8,109.58,456.85,108.53z"/>
		<path fill="#26231E" d="M399.99,78.54c-0.84-0.15-1.68-0.11-2.54-0.03c-1.26,0.11-1.82-0.83-1.23-1.94
			c0.64-1.19,1.35-2.34,1.97-3.53c0.33-0.64,0.9-0.98,1.5-0.98c0.53,0,0.76,0.66,0.95,1.12c0.23,0.56,0.47,1.07,0.93,1.49
			c0.8,0.72,1.22,1.61,0.7,2.66C401.82,78.24,401.04,78.67,399.99,78.54z"/>
		<path fill="#26231E" d="M415.87,100.17c-1.43,0.27-3.46-1.8-3.57-3.56c-0.04-0.68,0.38-1.32,0.9-1.44
			c1.15-0.25,2.22-0.92,3.52-0.54c1.13,0.34,1.71,1.02,2.02,2.07c0.26,0.89-0.08,1.63-0.65,2.26
			C417.5,99.62,416.89,100.34,415.87,100.17z"/>
		<path fill="#26231E" d="M475.41,94.87c-1.05-0.29-2.19-0.91-3.16-1.73c-0.64-0.54-0.36-1.74,0.41-2.09
			c0.52-0.24,0.74-0.64,0.94-1.09c0.41-0.89,0.99-1.64,1.64-2.36c0.42-0.46,0.86-0.33,1.26-0.06c0.38,0.25,0.68,0.55,0.41,1.14
			c-0.68,1.49-0.86,2.98-0.08,4.56C477.23,94.02,476.51,94.87,475.41,94.87z"/>
		<path fill="#26231E" d="M430.07,151.84c0.49,0.89,0.14,1.77-0.09,2.63c-0.12,0.43-0.15,0.64,0.37,0.65
			c0.7,0.02,0.93,0.59,0.9,1.09c-0.03,0.53-0.46,0.85-1.1,0.76c-0.46-0.06-0.84-0.02-1.19,0.5c-0.43,0.64-1.17,0.41-1.5-0.13
			c-0.35-0.57-0.8-0.75-1.37-0.78c-0.58-0.03-0.91-0.3-0.9-0.87c0.01-0.63,0.39-0.89,1-0.77c1.25,0.24,1.91-0.3,2.1-1.53
			c0.05-0.35,0.26-0.68,0.39-1.02c0.27-0.71,0.71-0.95,1.4-0.5C430.09,151.86,430.07,151.84,430.07,151.84z"/>
	</g>
	<g>
		<path fill="#26231E" d="M79.07,139.99c-1.03,1.08-1.97,2.24-3.3,3.01c-1.48,0.86-3.05,1.29-4.74,1.53
			c-1.18,0.17-2.32-0.09-3.47-0.07c-0.2,0-0.25,0.02-0.41,0.14c-1.13,0.86-2.32,1.67-3.8,1.71c-0.54,0.01-0.5,0.57-1.01,0.68
			c-1.42,0.31-2.85,0.24-4.23,0.11c-2.46-0.23-4.9-0.66-7.3-1.36c-2.27-0.67-4.48-1.48-6.67-2.36c-0.39-0.15-0.77-0.32-1.35-0.57
			c0.99,2.07,1.92,3.97,2.8,5.89c1.51,3.27,3.13,6.51,3.93,10.06c1.04,4.62,0.64,9.02-2.12,13.02c-1.49,2.15-3.58,3.48-6.11,3.93
			c-5.02,0.89-9.56-0.58-13.86-3.08c-2.54-1.47-4.76-3.35-6.72-5.52c-3.54-3.92-6.06-8.45-7.64-13.49c-0.98-3.12-1.69-6.3-2.07-9.56
			c-0.18-1.57-0.43-3.12-0.39-4.7c0-0.16,0.03-0.35-0.2-0.4c0-4.08,0-8.17,0-12.25c0.41-0.23,0.19-0.61,0.19-0.91
			c0.06-3.29,0.45-6.54,0.8-9.81c0.38-3.6,0.95-7.17,1.69-10.7c0.63-3.02,1.48-6,2.23-9c0.08-0.31,0.29-0.47,0.6-0.41
			c0.35,0.07,0.25,0.4,0.19,0.58c-0.64,2.08-1.08,4.21-1.49,6.34c-0.43,2.21-0.89,4.41-1.16,6.65c-0.29,2.44-0.71,4.86-0.99,7.31
			c-0.11,1-0.15,2.01-0.2,3.01c-0.11,1.99-0.15,3.99-0.29,5.97c-0.17,2.27-0.21,4.54-0.11,6.79c0.17,3.87,0.35,7.74,0.93,11.6
			c0.71,4.73,2,9.27,4.04,13.56c1.19,2.5,2.74,4.8,4.58,6.93c1.77,2.05,3.75,3.82,5.98,5.3c3.01,1.99,6.27,3.28,9.93,3.58
			c2.9,0.24,5.47-0.3,7.5-2.49c1.53-1.65,2.24-3.67,2.57-5.87c0.62-4.1-0.79-7.73-2.4-11.36c-1.48-3.34-3.06-6.63-4.77-9.86
			c-2.36-4.45-4.8-8.85-7.29-13.22c-1.43-2.51-2.72-5.11-4.05-7.68c-1.38-2.65-2.73-5.31-3.83-8.1c-0.5-1.27,0.04-2.19,1.25-2.11
			c0.54,0.04,0.72,0.39,0.93,0.78c1.7,3.27,3.38,6.55,5.11,9.81c2.37,4.44,4.78,8.86,7.14,13.3c0.25,0.48,0.67,0.57,1.03,0.59
			c1.3,0.08,2.59,0.23,3.88,0.43c1.68,0.26,3.37,0.24,5.06,0.2c3.04-0.07,6-0.65,8.9-1.5c0.45-0.13,0.84-0.24,1.29-0.09
			c0.65,0.75,0.49,1.46-0.47,1.86c-0.78,0.32-1.62,0.47-2.45,0.65c-2.76,0.58-5.54,0.9-8.36,0.81c-2.44-0.03-4.85-0.32-7.34-0.92
			c0.48,1.34,1,2.38,2.46,2.79c2.51,0.71,4.94,1.67,7.47,2.32c3.18,0.79,6.38,1.31,9.67,1.17c1.16-0.05,2.3-0.21,3.37-0.71
			c0.79-0.36,0.83-0.6,0.15-1.11c-2.29-1.71-2.53-4.11-2.26-6.68c0.03-0.31,0.2-0.57,0.39-0.82c0.22-0.61,0.41-1.24,0.65-1.84
			c1.4-3.52,4.28-4.93,7.79-5.28c3.58-0.36,4.93,0.51,7.03,2.18c0.18-1.06,1.19-1.35,1.85-1.94c1.63-1.47,3.17-3.01,4.63-4.65
			c3.08-3.48,5.22-7.51,7.11-11.71c0.13-0.3,0.33-0.41,0.66-0.3c0.39,0.12,0.36,0.31,0.27,0.67c-0.55,2.29-1.58,4.38-2.62,6.46
			c-0.07,0.14-0.11,0.3-0.16,0.45c-0.54,1.6-1.59,2.9-2.59,4.22c-2.17,2.84-4.64,5.4-7.46,7.6c-0.4,0.31-0.41,0.53-0.19,0.91
			c0.51,0.89,0.84,1.84,1.01,2.86c0.14,0.82,0.04,1.62-0.13,2.42c-0.17,0.78-0.43,1.52-0.92,2.16
			C79.16,139.94,79.11,139.96,79.07,139.99z"/>
		<path fill="#26231E" d="M90.33,129.79c1.85-3.11,3.11-6.43,3.62-10.02c0.07-0.51,0.89-0.28,0.65-0.91
			c-0.25-0.64-0.16-1.32-0.23-1.99c-0.16-1.45-0.42-2.89-0.58-4.34c-0.27-2.35-0.44-4.71-0.8-7.05c-0.23-1.52-0.26-3.07-0.44-4.59
			c-0.25-2.12-0.4-4.24-0.76-6.34c-0.21-1.21-0.29-2.44-0.46-3.66c-0.11-0.79,0.41-1.16,1-1.28c0.6-0.12,1.29,0.03,1.45,0.82
			c0.3,1.42,0.58,2.84,0.82,4.28c0.36,2.16,0.71,4.32,1.01,6.48c0.2,1.46,0.28,2.93,0.43,4.39c0.26,2.49,0.6,4.97,0.78,7.46
			c0.11,1.57,0.29,3.13,0.44,4.7c0.23,2.32,0.49,4.64,0.77,6.95c0.25,2.15,0.57,4.29,0.89,6.42c0.64,4.31,1.37,8.6,3.86,12.34
			c1.7,2.56,4.01,4.43,7,5.08c2.47,0.53,4.81-0.25,6.83-1.82c4.23-3.28,6.49-7.73,7.84-12.79c0.94-3.5,1-7.07,0.74-10.61
			c-0.3-4.02-1.46-7.87-2.98-11.63c-1.88-4.63-4.41-8.89-7.17-13.04c-2.47-3.73-5.17-7.29-7.94-10.8
			c-3.92-4.95-8.21-9.56-12.77-13.92c-0.96-0.92-1.87-1.93-3.01-2.66c-0.08-0.05-0.15-0.14-0.22-0.21c-0.26-0.27-0.71-0.59-0.4-0.94
			c0.36-0.42,0.71,0.07,0.99,0.31c3.64,3.06,7.22,6.19,10.48,9.67c2.97,3.17,5.84,6.45,8.51,9.89c2.62,3.37,5.16,6.8,7.5,10.37
			c3.22,4.92,5.91,10.11,7.57,15.77c0.66,2.24,1.15,4.53,1.39,6.89c0.23,2.34,0.27,4.69,0.11,7c-0.24,3.35-1.06,6.62-2.44,9.73
			c-1.38,3.08-3.31,5.75-5.78,8.04c-4.1,3.79-9.99,4.52-14.59,0.97c-3.87-2.99-5.96-6.95-6.96-11.61
			c-0.75-3.53-1.43-7.07-1.86-10.65c-0.19-1.58-0.53-3.15-0.69-4.76c-0.5,2.43-1.18,4.8-2.25,7.03c-1.79,3.71-4.37,6.78-7.41,9.56
			c-1.42,1.3-3.01,2.08-4.71,2.75c-1.2,0.48-1.48,0.22-1.46-1.07c0,0-0.03,0.03-0.03,0.03c0.3-0.55,0.83-0.73,1.38-0.91
			c0.47-0.15,0.98-0.23,1.35-0.62c1.4-1.27,3.01-2.29,4.33-3.68c1.24-1.31,2.43-2.63,3.41-4.15
			C89.73,130.32,89.88,129.9,90.33,129.79z"/>
		<path fill="#26231E" d="M56.17,111.03c-1.76,1.39-3.76,2.15-6,2.2c-1.24,0.03-2.39-0.38-3.5-0.94c-0.53-0.27-0.63-0.65-0.48-1.05
			c0.17-0.46,0.56-0.19,0.9-0.07c3.72,1.27,7.07-0.24,8.93-2.97c0.5-0.74,0.52-1.72,1.28-2.32c0.15-0.12,0.05-0.27-0.03-0.44
			c-0.86-2.05-1.73-4.11-2.55-6.18c-0.49-1.24-1.49-0.56-2.09-0.44c-1.95,0.42-3.91,0.61-5.89,0.52c-1.04-0.05-1.8-0.62-2.26-1.56
			c-0.45-0.91-0.04-1.69,0.46-2.38c0.38-0.52,0.67-0.99,0.87-1.63c0.38-1.22,1.36-2,2.48-2.6c0.84-0.45,1.68-0.91,2.59-1.2
			c1.93-0.62,3.6-1.89,5.67-2.15c1.85-0.23,3.69-0.26,5.33,0.74c1.69,1.03,2.17,3.1,0.19,5.19c-1.71,1.81-3.93,2.91-5.96,4.28
			c-0.46,0.31-0.61,0.47-0.26,0.93c0.96,1.27,1.68,2.67,2.34,4.11c0.22,0.48,0.44,0.82,1.09,0.81c0.68-0.01,1.15,0.59,1.74,0.89
			c2.78,1.39,5.74,0.66,7.88-1.3c0.23-0.21,0.43-0.43,0.65-0.64c0.3-0.29,0.62-0.71,1.07-0.49c0.45,0.22,0.29,0.76,0.22,1.11
			c-0.18,0.89-0.67,1.63-1.35,2.25c-1.15,1.03-2.59,1.47-3.97,2.04c-1.47,0.54-2.95,0.35-4.43,0.07c-0.36-0.07-0.7-0.22-1.04-0.37
			c-0.92-0.41-0.92-0.41-1.49,0.92c-0.16,0.28-0.29,0.58-0.45,0.85c-0.29,0.36-0.56,0.72-0.83,1.09
			C56.95,110.58,56.74,111.09,56.17,111.03z"/>
		<path fill="#E43C5F" d="M57.98,109.16c0.07-0.32,0.18-0.63,0.44-0.85c0.45-0.44,0.62-1.21,1.43-1.23
			c1.82,0.88,3.77,0.62,5.69,0.64c1.72,2.21,2.34,4.8,2.71,7.51c0.25,1.79,0.23,3.52-0.37,5.24c-0.51,1.44-1.33,2.63-2.86,2.95
			c-1.91,0.4-3.51-0.34-4.7-1.88c-1.85-2.4-3.26-5.02-3.8-8.04c-0.15-0.82-0.23-1.65-0.34-2.47c0.34-0.29,0.68-0.59,1.02-0.88
			c0.54,0.09,0.4,0.53,0.48,0.88C57.6,110.38,57.7,109.75,57.98,109.16z"/>
		<path fill="#26231E" d="M79.1,67.3c1.64,0,2.94,0.01,4.23,0c0.89-0.01,1.26,0.42,1.25,1.28c-0.01,0.84-0.51,0.98-1.21,0.97
			c-1.84-0.02-3.68-0.05-5.52,0c-3.72,0.1-7.41,0.46-11.1,0.98c-6.07,0.85-11.96,2.34-17.74,4.32c-4.86,1.66-9.55,3.73-14.08,6.14
			c-4.81,2.57-9.34,5.58-13.69,8.87c-1.78,1.34-3.49,2.77-5.21,4.19c-0.33,0.27-0.71,0.65-1.03,0.34c-0.36-0.36,0.04-0.81,0.34-1.1
			c1.75-1.64,3.43-3.35,5.29-4.85c2.55-2.05,5.18-4,7.96-5.76c4.37-2.77,8.88-5.25,13.63-7.33c5.22-2.29,10.58-4.12,16.11-5.45
			c2.73-0.66,5.48-1.22,8.27-1.61c2.62-0.36,5.24-0.6,7.87-0.84C76.15,67.3,77.8,67.43,79.1,67.3z"/>
		<path fill="#E43C5F" d="M90.33,129.79c-1.9,3.28-4.51,5.92-7.54,8.14c-0.3,0.22-0.52,0.53-0.87,0.68
			c-1.02,0.27-1.45,0.08-2.01-0.85c0.51-2.24-0.2-4.2-1.41-6.08c1.09-0.1,1.69-0.98,2.37-1.61c2.69-2.46,5.18-5.11,7.2-8.17
			c0.47-0.72,0.78-1.54,1.41-2.15c0.64,0.09,0.81,0.59,0.8,1.09c-0.03,1.85,0.18,3.67,0.42,5.49
			C90.85,127.51,90.4,128.63,90.33,129.79z"/>
		<path fill="#E43C5F" d="M48.2,139.42c3.48,0.02,6.91-0.41,10.28-1.26c1.37-0.34,1.59-0.66,1.16-1.81
			c0.87-0.22,1.75-0.43,2.62-0.65c-0.16,1.43-0.34,2.85,0.01,4.28c0.35,1.41,1.16,2.44,2.34,3.22c0.75,0.5,0.74,0.73-0.03,1.14
			c-1.13,0.61-2.35,0.88-3.63,0.95c-3.28,0.18-6.48-0.34-9.66-1.04c-0.16-0.03-0.3-0.15-0.44-0.22c-0.96-0.32-1.92-0.63-2.72-1.26
			c-0.92-0.73-0.97-1.28-0.05-1.97C48.75,140.33,48.27,139.89,48.2,139.42z"/>
		<path fill="#26231E" d="M73.97,84.86c-2.35,0-3.5-1.74-2.49-3.77c0.04-0.09,0.05-0.2,0.1-0.28c0.38-0.65,1.17-0.45,1.63-0.75
			c0.41-0.27,0.37-1.09,1.11-1.34c1.43-0.49,3.12-0.07,3.33,2.55C77.82,83.41,75.86,85.12,73.97,84.86z"/>
		<path fill="#26231E" d="M28.79,96.7c-0.11,1.7-1.77,2.94-3.19,2.47c-1.33-0.44-1.72-1.69-0.86-2.79c0.22-0.28,0.35-0.52,0.38-0.88
			c0.08-0.95,0.71-1.51,1.56-1.82c0.6-0.22,1.05,0.12,1.38,0.58C28.58,95,28.53,95.94,28.79,96.7z"/>
		<path fill="#26231E" d="M102.79,138.58c0.19,0.09,0.4,0.2,0.36,0.43c-0.03,0.2-0.18,0.39-0.41,0.36c-0.2-0.03-0.39-0.18-0.36-0.41
			C102.4,138.75,102.56,138.6,102.79,138.58z"/>
		<path fill="#FFFFFF" d="M70.09,143.49c-1.83-0.08-3.47-0.45-4.84-1.51c-1.34-1.03-1.84-2.52-1.7-4.15c0.08-1,0.38-1.99,0.7-2.96
			c0.55-1.66,1.95-2.44,3.3-3.26c1.69-1.03,3.64-1.48,5.54-1.53c1.99-0.05,3.59,1.03,4.77,2.79c2.22,3.32,1.26,7.13-2.49,9.18
			C73.69,142.97,71.87,143.33,70.09,143.49z"/>
		<path fill="#FFFFFF" d="M48.2,139.42c0.14,0.36,0.5,0.39,0.92,0.46c-0.44,0.51-0.49,1.12-1.18,1.32c-0.64,0.18-0.4,0.65-0.08,1.01
			c0.61,0.68,1.42,1.08,2.23,1.45c0.26,0.12,0.56,0.17,0.77,0.39c-1.97-0.36-3.82-1.1-5.72-1.7c-0.22-0.07-0.43-0.19-0.65-0.22
			c-2.15-0.32-3.48-1.53-3.87-3.78C43.05,139.03,45.61,139.32,48.2,139.42z"/>
		<path fill="#FFFFFF" d="M79.91,137.76c0.55,0.56,1.23,0.84,2.01,0.85c-0.2,0.73-0.94,0.51-1.41,0.74
			c-0.48,0.23-1.02,0.35-1.46,0.68C79.33,139.26,79.62,138.51,79.91,137.76z"/>
		<path fill="#FFFFFF" d="M59.33,90.79c0.44-0.02,1.02,0.17,1,0.35c-0.06,0.56-0.58,0.89-1.2,1.39
			C59.49,91.83,59.5,91.32,59.33,90.79z"/>
		<path fill="#FFFFFF" d="M57.98,109.16c0.2,0.74-0.23,1.4-0.2,2.26c-0.24-0.52-0.41-0.9-0.59-1.27
			C57.4,109.78,57.55,109.36,57.98,109.16z"/>
		<path fill="#FFFFFF" d="M59.85,107.09c-0.55,0.33-0.84,0.96-1.43,1.23c0.09-0.31,0.14-0.64,0.28-0.94
			C58.95,106.82,59.31,106.57,59.85,107.09z"/>
		<path fill="#FFFFFF" d="M82.23,130.23c-0.17,0.37-0.2,0.85-0.7,0.88c-0.06,0-0.2-0.17-0.18-0.21
			C81.51,130.47,81.89,130.38,82.23,130.23z"/>
		<path fill="#FFFFFF" d="M59.63,142.59c0.33-0.3,0.43-0.67,0.82-0.63c0.08,0.01,0.21,0.22,0.18,0.3
			C60.49,142.74,60.12,142.68,59.63,142.59z"/>
		<path fill="#FFFFFF" d="M57.47,138.94c0.47-0.16,0.74-0.26,1.06-0.37c-0.02,0.28-0.14,0.39-0.35,0.4
			C58.02,138.98,57.86,138.96,57.47,138.94z"/>
		<path fill="#FFFFFF" d="M74.96,82.3c-0.97,0.9-1.57,0.96-2.17,0.27c-0.47-0.54-0.4-1.05,0.15-1.46c0.18-0.14,0.59-0.6,0.66,0.17
			C73.62,81.58,74.26,81.96,74.96,82.3z"/>
		<path fill="#26231E" d="M66.82,139.57c0.33-0.59,0.98-1.21,1.66-1.7c0.57-0.41,0.96-1.03,1.64-1.3c0.34-0.14,0.3-0.44,0.15-0.73
			c-0.32-0.61-0.66-1.21-0.95-1.84c-0.1-0.22-0.2-0.55,0.09-0.71c0.23-0.13,0.45,0.04,0.61,0.23c0.42,0.51,0.94,0.98,1.24,1.56
			c0.25,0.48,0.52,0.33,0.75,0.19c0.73-0.44,1.47-0.87,2.25-1.23c0.63-0.29,1.07-0.18,1.39,0.41c0.35,0.63,0.04,1-0.52,1.27
			c-0.45,0.21-0.9,0.42-1.32,0.67c-0.62,0.37-1.71,0.48-0.91,1.69c0.2,0.29,0.07,0.79-0.47,0.94c-0.46,0.13-0.79-0.04-0.92-0.44
			c-0.26-0.78-0.57-0.49-1.01-0.16c-0.81,0.62-1.5,1.36-2.25,2.03c-0.26,0.24-0.58,0.48-1.05,0.18
			C66.85,140.41,66.78,140.17,66.82,139.57z"/>
	</g>
	<g>
		<path fill="#26231E" d="M386.96,446.75c-0.56-0.79-0.55-2.92-0.01-3.67c0.22-0.32,0.43-0.24,0.65-0.07
			c0.44,0.35,0.8,2.86,0.47,3.32c-0.12,0.17-0.33,0.28-0.5,0.42C387.37,446.75,387.17,446.75,386.96,446.75z"/>
		<path fill="#26231E" d="M405.56,381.32c0-3.1,0.02-6.19-0.01-9.29c-0.02-2.46,0.74-4.78,1.13-7.17c0.45-2.74,1.03-5.47,1.35-8.23
			c0.52-4.5,1.57-8.88,3.26-13.1c1.2-3.01,2.72-5.85,4.53-8.51c1.72-2.53,3.48-5.08,6-6.93c2.63-1.94,4.44-1.51,5.96,1.3
			c1.7,3.16,2.76,6.59,3.94,9.97c1.61,4.61,2.49,9.4,3.48,14.17c0.21,1.03,0.39,2.08,0.63,3.1c0.07,0.32,0.23,0.56,0.66,0.72
			c2.72,1.01,5.53,1.71,8.33,2.36c4.63,1.07,9.3,1.97,13.96,2.86c0.87,0.17,1.8,0.24,2.63,0.49c0.77,0.23,0.9-0.04,1.17-0.6
			c1.54-3.2,3.53-6.11,5.8-8.85c1.66-2,3.44-3.87,5.4-5.56c2.51-2.16,5.21-4.09,8.14-5.64c0.75-0.4,1.38-1.18,2.53-0.7
			c1.32,0.55,2.31,1.35,3,2.56c0.96,1.7,1.22,3.59,1.51,5.49c0.5,3.29,0.47,6.61,0.36,9.91c-0.13,4.16-0.61,8.28-1.72,12.31
			c-0.05,0.19-0.09,0.4-0.09,0.59c0.08,3.7-0.65,7.3-1.48,10.86c-0.74,3.16-1.79,6.24-3.02,9.25c-2,4.89-4.53,9.49-7.56,13.81
			c-2.7,3.85-5.89,7.27-9.35,10.42c-2.99,2.72-6.27,5.1-9.77,7.15c-3.88,2.27-7.97,3.99-12.4,4.92c-2.57,0.54-5.13,0.61-7.72,0.57
			c-2.38-0.03-4.56-0.89-6.75-1.72c-4.36-1.66-8.11-4.24-11.28-7.64c-3.95-4.25-7.21-8.96-9.48-14.33
			c-1.37-3.24-2.22-6.61-2.72-10.07c-0.54-3.66-0.41-7.35-0.41-11.03C405.56,383.63,405.56,382.48,405.56,381.32z"/>
		<path fill="#26231E" d="M382.07,415.31c3.32-0.16,5.99,0.89,8.21,2.84c1.99,1.76,3.09,4.07,3.24,6.8c0.2,3.7-1.04,6.8-3.76,9.28
			c-1.56,1.42-3.37,2.39-5.56,2.53c-0.74,0.05-1-0.35-1.04-0.9c-0.04-0.51,0.13-1,0.76-1.16c1.8-0.47,3.39-1.34,4.63-2.72
			c2.63-2.93,3.61-7.19,1.08-10.73c-1.2-1.68-2.91-2.67-4.79-3.19c-2.55-0.7-5.1-0.5-7.32,1.14c-3.16,2.34-3.61,6.9-0.78,9.47
			c1.44,1.32,3.77,1.14,4.97-0.18c1.06-1.17,0.57-3.45-0.9-4.21c-0.31-0.16-0.72-0.26-0.58-0.76c0.15-0.51,0.57-0.24,0.85-0.24
			c1.19,0.01,2.4,1.27,2.83,2.71c0.9,3.01-1.61,5.53-4.48,5.69c-3.8,0.21-6.3-3.02-6.8-6.14c-0.88-5.42,3.39-9.48,7.52-10.08
			C380.89,415.35,381.62,415.37,382.07,415.31z"/>
		<path fill="#26231E" d="M392.42,405.83c-0.16,2.34-1.03,4.2-2.75,5.63c-0.3,0.25-0.64,0.27-0.9,0c-0.31-0.31-0.2-0.66,0.02-1
			c0.68-1.05,1.2-2.17,1.57-3.36c0.17-0.53-0.02-1.13,0.38-1.62c0.32-0.4,0.73-0.49,1.17-0.38
			C392.33,405.21,392.28,405.69,392.42,405.83z"/>
		<path fill="#26231E" d="M371.89,433.54c-0.2,1.78-0.88,3.34-1.91,4.73c-0.22,0.3-0.18,0.85-0.66,0.9
			c-0.35,0.03-0.81,0.19-1.03-0.2c-0.2-0.35-0.22-0.74,0.08-1.12c1.07-1.35,1.9-2.83,2.48-4.46c0.12-0.32,0.23-0.89,0.8-0.71
			C372.1,432.83,371.67,433.3,371.89,433.54z"/>
		<path fill="#26231E" d="M401.31,424.08c0.84-0.02,1.52-0.01,2.2,0.27c0.52,0.22,0.49,0.62,0.38,0.97
			c-0.1,0.34-0.42,0.74-0.83,0.56c-1.25-0.54-2.56-0.33-3.85-0.39c-0.22-0.01-0.55,0.17-0.62-0.29c-0.06-0.4,0.18-0.51,0.46-0.65
			C399.81,424.17,400.6,423.95,401.31,424.08z"/>
		<path fill="#26231E" d="M370.23,411.83c0.83,0.05,2.35,1.18,2.58,1.9c0.07,0.22,0.15,0.5-0.03,0.67c-0.2,0.19-0.4,0.01-0.63-0.09
			c-0.75-0.31-1.52-0.6-2.3-0.84c-0.56-0.17-0.49-0.58-0.46-0.97C369.44,411.99,369.95,412.01,370.23,411.83z"/>
		<path fill="#FFFFFF" d="M445.62,361.95c2.59,0.61,5.05,1.21,7.51,1.75c3.13,0.68,6.26,1.35,9.4,1.95
			c1.43,0.27,1.86-0.25,1.68-1.78c-0.07-0.56,0.39-0.92,0.64-1.3c1.59-2.48,3.25-4.91,5.18-7.16c3.64-4.22,7.93-7.6,12.71-10.42
			c0.74-0.44,1.08,0.09,1.41,0.52c0.83,1.07,1.11,2.37,1.29,3.67c0.4,2.88,0.67,5.77,0.88,8.67c0.22,3.02,0.15,6.03,0.11,9.04
			c-0.03,1.77-0.45,3.55-0.79,5.3c-0.66,3.36-1.29,6.72-2.2,10.03c-0.91,3.3-2,6.52-3.32,9.67c-1.76,4.2-3.9,8.2-6.52,11.93
			c-1.34,1.9-2.74,3.76-4.3,5.5c-0.88,0.98-1.78,1.94-2.71,2.87c-2.81,2.77-5.65,5.45-9.24,7.28c-3.31,1.68-6.34,3.88-9.83,5.47
			c-0.12-2.01-1.47-3.11-2.93-4.13c-2.56-1.78-5.3-3.2-8.39-3.78c-3.93-0.74-7.6-0.21-10.78,2.41c-0.72,0.6-1.04,1.43-1.36,2.35
			c-1.95-1.47-3.68-3.16-5.3-4.99c-1.83-2.07-3.46-4.28-4.93-6.62c-2.43-3.88-4.13-8.05-5.02-12.55c-0.65-3.26-0.85-6.54-1.06-9.85
			c-0.19-3.05,0.05-6.1-0.19-9.14c-0.15-1.84-0.09-3.69-0.36-5.52c-0.17-1.17,0.35-2.3,0.23-3.48c0.39,0.72,0.4,1.48,0.38,2.24
			c-0.12,3.59,0.03,7.19,0.24,10.77c0.18,3.09,0.42,6.19,1,9.24c0.24,1.25,0.89,2.2,2.11,2.8c1.42,0.69,2.92,1.05,4.46,1.18
			c4.26,0.36,8.26-0.57,11.99-2.64c1.68-0.93,3.24-2.05,4.69-3.33c4.44-3.89,7.57-8.75,10.46-13.81c1.46-2.56,2.59-5.24,3.2-8.11
			C446.39,366.02,446.4,364.02,445.62,361.95z"/>
		<path fill="#FFFFFF" d="M428.02,369.35c1.51-0.11,2.11,1.07,2,2.1c-0.18,1.79-0.81,3.49-2.34,4.68c-0.76,0.59-1.46,0.31-2.21-0.03
			c-0.72-0.33-0.94-0.89-0.91-1.61c0.07-1.94,0.5-3.73,2.28-4.87C427.21,369.39,427.63,369.24,428.02,369.35z"/>
		<path fill="#26231E" d="M461.33,383.27c0.01-1.71,0.87-3.04,2.03-4.15c0.59-0.57,1.43-0.89,2.28-0.37
			c0.92,0.56,1.3,1.47,1.18,2.46c-0.15,1.2-0.58,2.35-1.25,3.37c-0.55,0.84-1.91,1.34-2.74,1.06
			C461.98,385.35,461.35,384.35,461.33,383.27z"/>
	</g>
	<path fill="#26231E" d="M272.2,374.14c-0.04-2.77,0.39-5.12,2.02-7.17c1.23-1.56,2.86-2.31,4.74-2.51
		c5.13-0.56,9.76,1.09,14.25,3.32c2.37,1.18,4.49,2.72,6.36,4.56c2.67,2.63,4.51,5.81,5.09,9.54c0.5,3.22-0.12,6.38-1.23,9.44
		c-0.88,2.42-1.77,4.87-3.54,6.78c-1.43,1.54-3.15,2.64-5.44,2.74c-2.66,0.12-4.75-1-6.69-2.58c-3.13-2.55-5.94-5.44-8.73-8.33
		c-3.42-3.55-5.69-7.76-6.58-12.63C272.24,376.19,272.01,375.04,272.2,374.14z"/>
	<path fill="#26231E" d="M230.54,398.18c-3.44-0.03-5.59-1.53-7.15-3.89c-2.13-3.23-3.34-6.82-3.91-10.65
		c-0.7-4.74,0.78-8.8,3.74-12.43c2.58-3.16,5.86-5.32,9.54-7c2.54-1.16,5.18-1.93,7.91-2.38c2.65-0.43,5.3-0.5,7.69,1.11
		c2.14,1.44,3.1,3.5,3.43,6c0.61,4.6-0.62,8.78-2.66,12.82c-0.85,1.67-2.03,3.1-3.19,4.53c-1.5,1.84-3.17,3.54-4.94,5.11
		c-2.21,1.97-4.21,4.22-6.86,5.67C233.1,397.65,231.74,398.28,230.54,398.18z"/>
	<path fill="#26231E" d="M261.16,400.34c-1.72,1.54-4.08,2.06-5.9,0.68c-1.06-0.8-1.98-2.95-1.45-4.43c0.07-0.19,0.12-0.3,0.32-0.29
		c0.47,0.02,0.27,0.39,0.29,0.61c0.2,1.94,0.85,2.9,2.5,3.39c0.9,0.27,1.65-0.16,2.42-0.6c0.69-0.4,0.36-0.94,0.39-1.41
		c0.13-2.13,0.48-4.24,0.77-6.35c0.24-1.75,0.45-3.49,0.68-5.24c0.05-0.42-0.21-0.42-0.51-0.41c-3.15,0.12-4.99-4.04-3.01-6.47
		c1.33-1.63,4.76-2.73,6.69-1.93c1.93,0.8,2.21,2.52,1.51,4.27c-0.7,1.77-1.69,3.33-3.67,3.94c-0.35,0.11-0.2,0.39-0.2,0.59
		c0.04,1.89-0.11,3.79-0.28,5.66c-0.18,1.91,0.13,3.83-0.32,5.73c-0.22,0.93,1.28,3.05,2.21,3.32c1.4,0.41,2.62-0.19,3.3-1.63
		c0.21-0.44,0.54-0.75,1.03-0.59c0.64,0.21,0.48,0.85,0.35,1.22c-0.71,2.01-3.17,3.52-5.5,2.11
		C261.98,402.03,261.57,401.24,261.16,400.34z"/>
	<path fill="#FFFFFF" d="M231.12,120.27c0.82,1.26,1.64,2.51,2.44,3.77c0.17,0.28,0.4,0.64,0.11,0.92
		c-0.19,0.19-0.55,0.27-0.83,0.27c-0.48,0-0.28-0.47-0.35-0.71C232.11,123.09,231.57,121.7,231.12,120.27z"/>
	<path fill="#FFFFFF" d="M226.93,116.16c0.29,0.29,0.83,0.83,1.37,1.37C227.13,117.61,227.28,116.35,226.93,116.16z"/>
	<path fill="#FFFFFF" d="M223.24,109.92c-0.63,0.07-0.98-0.08-1.19-0.46c-0.03-0.05,0.19-0.36,0.29-0.36
		C222.81,109.09,222.96,109.48,223.24,109.92z"/>
	<g>
		<path fill="#26231E" d="M134.85,326.29c-3.82-0.5-7.22-1.92-10.21-4.39c-3.41-2.83-5.52-6.46-6.28-10.72
			c-0.81-4.57-0.37-9.09,1.97-13.27c0.39-0.69,0.94-1.06,1.77-1.07c4.32-0.04,8.06,1.56,11.43,4.13c2.5,1.91,4.54,4.25,5.98,7.05
			c2.02,3.91,2.48,8.08,1.89,12.42c-0.17,1.28-0.37,2.56-0.62,3.82c-0.09,0.44-0.2,0.79,0.69,0.68c2.57-0.33,5.12-0.07,7.57,0.89
			c1.52,0.6,3.02,1.24,3.9,2.71c0.78,1.3,0.74,2.66,0.02,3.98c-0.52,0.95-2.32,1.23-3.35,1.04c-1.88-0.35-3.61-1.14-5.5-2
			c0.5,1.99,0.33,3.82-0.29,5.61c-0.39,1.11-0.96,2.12-1.86,2.89c-0.52,0.44-0.99,0.52-1.46-0.21c-1.17-1.78-1.74-3.73-2.01-5.82
			c-0.23-1.78-0.27-3.54,0-5.31c0.09-0.57,0.16-1.22-0.39-1.67c-0.42-0.39-0.92-0.52-1.49-0.5
			C136.02,326.56,135.41,326.6,134.85,326.29z"/>
		<path fill="#F08D05" d="M134.85,326.29c0.84-0.01,1.69,0.02,2.52-0.05c0.66-0.06,0.84,0.21,0.75,0.8
			C136.7,327.85,136.08,327.71,134.85,326.29z"/>
		<path fill="#F08D05" d="M120.54,302.32c0.19-1.24,0.77-2.33,1.33-3.42c0.16-0.31,0.46-0.49,0.85-0.42
			c3.72,0.57,7.12,1.89,10.02,4.35c0.48,0.41,0.86,0.93,1.28,1.4c2.62,3.57,4.56,7.45,5.48,11.81c0.4,0.94,0.28,1.93,0.2,2.89
			c-0.13,1.53-0.38,3.04-0.58,4.56c-0.07,0.53-0.15,1.06-0.2,1.59c-0.05,0.51-0.43,0.34-0.69,0.35c-1.79,0.07-3.51-0.31-5.22-0.79
			c-1.08-0.31-2.12-0.71-3.11-1.24c-4.91-4.01-7.87-9.2-9.29-15.31C120.18,306.17,120.19,304.25,120.54,302.32z"/>
		<path fill="#FFFFFF" d="M120.54,302.32c0.57,0.46-0.01,0.93-0.02,1.39c-0.1,3.24,0.66,6.28,1.93,9.23
			c1.64,3.81,4.01,7.09,7.04,9.9c0.16,0.15,0.4,0.27,0.42,0.55c-5.3-2.6-8.61-6.73-9.79-12.56
			C119.54,307.95,119.59,305.12,120.54,302.32z"/>
		<path fill="#F08D05" d="M141.78,327.15c2.78-0.31,5.32,0.03,7.76,1.13c0.68,0.31,1.14,0.83,1.63,1.34
			c0.41,0.42,0.29,0.98,0.14,1.43c-0.13,0.38-0.59,0.5-1.02,0.51c-1.1,0.02-2.08-0.4-3.07-0.82
			C145.23,329.9,143.38,328.81,141.78,327.15z"/>
		<path fill="#F08D05" d="M140.98,337.31c-0.38-0.64-0.59-1.33-0.65-2.08c-0.3-2.03-0.11-4.09-0.2-6.13
			c0.09-0.1-0.09-0.47,0.32-0.24c1.31,0.73,2.03,1.86,2.34,3.27c0.39,1.77,0.2,3.49-0.62,5.13
			C141.78,337.56,141.38,337.6,140.98,337.31z"/>
		<path fill="#FFFFFF" d="M139.51,316.04c-0.98-3.27-2.43-6.35-4.05-9.34c-0.45-0.84-0.95-1.65-1.43-2.47
			c1.91,1.47,3.09,3.51,4.03,5.64C138.92,311.8,139.64,313.84,139.51,316.04z"/>
		<path fill="#FFFFFF" d="M140.13,329.11c0.41,2.03,0.2,4.08,0.2,6.13C139.75,333.21,139.85,331.17,140.13,329.11z"/>
		<path fill="#FFFFFF" d="M140.98,337.31c0.4-0.01,0.79-0.02,1.19-0.03c-0.13,0.4-0.3,0.78-0.71,0.98
			C141.18,338,141,337.69,140.98,337.31z"/>
		<path fill="#26231E" d="M126.14,303.18c1.87,0,2.91,1.01,2.75,2.64c-0.09,0.94-0.17,1.9-0.55,2.82c-0.41,1-1.14,1.23-2.01,1.05
			c-2.74-0.57-4.22-3.29-2.37-5.59C124.59,303.32,125.51,303.36,126.14,303.18z"/>
	</g>
	<g>
		<path fill="#26231E" d="M99.24,283.78c1.68-1.58,2.97-3.62,5.17-4.6c1.82-0.81,3.61-0.24,4.85,1.23c0.3,0.35,0.63,0.73,0.75,1.15
			c0.32,1.09,0.83,0.63,1.36,0.25c2.86-2.12,5.43-4.57,7.78-7.21c3.11-3.49,5.56-7.43,7.39-11.77c1.18-2.8,2.08-5.68,2.73-8.62
			c0.98-4.43,1.17-8.97,0.82-13.46c-0.51-6.52-2.18-12.79-5.33-18.58c-1.64-3.02-3.56-5.87-5.7-8.55c-0.27-0.34-0.42-0.65-0.34-1.1
			c-1.48,0.52-1.72,0.49-2.44-0.72c-0.88-1.47-1.68-2.98-2.45-4.51c-1.12-2.2-2.46-4.27-3.76-6.46c-1.68,1.58-2.92,3.41-4.02,5.34
			c-0.76,1.34-1.44,2.73-2.25,4.06c-0.13,0.21-0.28,0.37-0.43,0.55c-0.18,0.22-0.41,0.41-0.7,0.28c-0.28-0.12-0.32-0.38-0.33-0.67
			c-0.04-1.23,0.36-2.36,0.85-3.43c1.51-3.31,3.37-6.42,5.57-9.32c1.06-1.4,1.97-1.43,3.09-0.03c1.24,1.55,2.14,3.32,3.14,5.03
			c1.44,2.47,2.95,4.94,4,7.58c0.48,1.19,1.19,1.95,1.95,2.83c4.91,5.64,7.85,12.28,9.57,19.48c0.62,2.61,0.94,5.29,1.11,8
			c0.11,1.69,0.21,3.38,0.13,5.06c-0.29,6.09-1.42,11.99-3.85,17.63c-1.73,4-3.93,7.7-6.72,11.03c-2.83,3.39-6.03,6.41-9.67,8.94
			c-0.51,0.36-0.64,0.68-0.38,1.21c0.87,1.77,1.12,3.71,1.42,5.62c0.44,2.81-1.52,5.01-4.39,5.03c-1.91,0.01-3.73-0.61-5.6-0.83
			c-1.22-0.28-2.47-0.46-3.68-0.76c-1.5-0.6-2.32,0.69-3.24,1.33c-2.5,1.73-5,2.23-7.77,0.8c-0.51-0.27-0.76,0.17-1.09,0.41
			c-2.48,1.8-4.73,3.96-7.54,5.28c-1.78,0.83-3.63,1.22-5.6,0.74c-1.04-0.25-1.32-0.96-1.55-1.89c-0.41-1.66,0.07-3.35-0.35-5.01
			c-0.12-0.49-0.3-0.49-0.66-0.49c-6.21-0.03-12.18-1.36-17.95-3.51c-4.58-1.71-8.88-4.01-12.75-7.05c-1.93-1.52-3.83-3.08-5.48-4.9
			c-3.88-4.27-6.94-9.05-8.99-14.47c-0.92-2.42-1.47-4.91-1.98-7.42c-0.31-1.53-0.32-3.13-0.45-4.69c-0.09-1.07-0.17-2.18-0.13-3.21
			c0.09-2.11,0.05-4.23,0.28-6.34c0.23-2.05,0.46-4.09,0.87-6.11c0.13-0.61-0.51-0.8-0.66-1.29c-0.33-1.09-0.21-2.2-0.29-3.28
			c-0.22-2.77-0.79-5.5-0.88-8.27c-0.06-1.67,0.91-2.38,2.44-1.72c3.61,1.57,7.42,2.65,10.93,4.45c0.22,0.11,0.47,0.26,0.72-0.12
			c1.7-2.66,4.32-4.31,6.9-5.95c2.44-1.55,5.01-2.9,7.64-4.12c5.43-2.53,11.06-4.5,16.88-5.92c3.15-0.77,6.33-1.37,9.54-1.8
			c1.69-0.22,3.39-0.38,5.1-0.49c2.9-0.17,5.79-0.46,8.69-0.35c3.09,0.12,6.17,0.37,9.25,0.6c1.11,0.08,1.38,0.51,1.4,1.63
			c0.02,0.75-0.49,1.05-0.98,0.97c-0.77-0.13-1.56-0.03-2.29-0.19c-1.36-0.31-2.74-0.26-4.1-0.33c-2.92-0.15-5.86-0.14-8.78-0.02
			c-2.77,0.11-5.53,0.39-8.29,0.75c-3.19,0.42-6.35,0.99-9.48,1.68c-5.24,1.16-10.31,2.87-15.25,4.93
			c-4.11,1.71-8.09,3.68-11.72,6.29c-1.36,0.98-2.61,2.1-3.82,3.26c-0.35,0.33-0.32,0.84-0.84,1.15c-0.77,0.46-1.36-0.02-1.94-0.17
			c-2.76-0.71-5.49-1.57-8.32-2.41c0.58,3,0.64,6,0.6,9.01c-0.01,0.47-0.04,0.87-0.46,1.15c-0.4,0.27-0.37,0.68-0.37,1.09
			c0.01,3.27-0.13,6.54,0.03,9.8c0.3,6.24,1.15,12.4,3.76,18.16c1.61,3.56,3.7,6.83,6.15,9.89c3.36,4.21,7.39,7.65,11.95,10.41
			c4.91,2.97,10.2,5.13,15.88,6.3c2.41,0.5,4.84,0.75,7.25,1.18c0.47,0.08,0.57-0.14,0.55-0.57c-0.07-1.78,0.16-3.55,0.4-5.31
			c0.15-1.13,0.58-2.16,1.16-3.11c0.44-0.73,1.73-1.13,2.56-0.89c3.22,0.96,6.3,2.2,8.72,4.65c0.34,0.35,0.48,0.34,0.65-0.15
			c0.64-1.92,2.97-3.6,5.33-3.64c2.47-0.04,4.41,0.8,5.94,2.69c1.12,0.74,1.27,1.97,1.41,3.12c0.1,0.8,0.4,1.08,1.16,1.21
			c2.81,0.48,5.51,1.44,8.34,1.85c1.01,0.15,1.9,0.04,2.51-0.89c0.39-0.79,0.43-1.59,0.29-2.46c-0.19-1.17-0.41-2.32-0.68-3.47
			c-0.16-0.7-0.46-1.02-1.18-0.7c-0.61-0.2-0.64-0.73-0.71-1.24c0.2-0.49,1.16-0.61,0.64-1.47c-0.65-1.06-1.26-2.13-2.76-1.97
			c-1.67,0.56-2.83,1.81-4.06,2.95c-0.96,0.9-1.93,1.79-2.91,2.66c-0.23,0.2-0.46,0.42-0.77,0.47c-0.58,0.1-0.78-0.12-0.48-0.67
			l-0.01-0.01c0.25-0.46,0.76-0.71,0.96-1.21c0.08-0.09,0.17-0.17,0.25-0.26C98.71,284.41,99.09,284.18,99.24,283.78z"/>
		<path fill="#F6C5CD" d="M45.17,262.53c-1.58,0.1-3.15-0.13-4.57-1.11c-1.43-1-2.35-3-1.97-4.6c0.42-1.78,1.73-2.49,3.41-2.9
			c1.13-0.28,2.14-0.99,3.26-1.35c1.83-0.6,3.67-1.12,5.65-0.68c1.95,0.43,3.39,1.41,3.9,3.39c0.53,2.01-0.48,3.51-1.97,4.67
			C51.16,261.3,48.13,262.77,45.17,262.53z"/>
		<path fill="#F6C5CD" d="M109.44,249.85c-1.02-0.05-2.01-0.2-2.94-0.66c-1.47-0.74-1.91-2.11-1.39-3.65
			c0.71-2.11,2.23-3.45,4.07-4.47c1.71-0.95,3.46-1.82,5.46-2.09c2.05-0.28,3.5,0.1,4.36,1.52c1.01,1.66,0.87,3.39-0.35,5
			c-1.9,2.51-4.54,3.74-7.61,4.17c-0.27,0.04-0.52,0.14-0.79,0.17C109.99,249.88,109.72,249.85,109.44,249.85z"/>
		<path fill="#F6C5CD" d="M107.68,284.2c0.19,0.4,0.39,0.8,0.58,1.2c1.21,2.1,2.38,4.2,1.87,6.77c-0.28,0.99-1.15,1.21-1.95,1.18
			c-1.93-0.06-3.77-0.66-5.64-1.09c-1.48-0.34-2.92-0.89-4.46-0.91c-0.49-0.01-0.44-0.3-0.43-0.6c0.05-1.44-0.43-2.71-1.19-3.9
			c0.27-0.2,0.53-0.4,0.8-0.6c0,0.2-0.1,0.51,0.09,0.56c0.29,0.08,0.56-0.14,0.78-0.34c0.9-0.82,1.79-1.64,2.68-2.47
			c1.41-1.32,2.74-2.74,4.61-3.44C106.55,280.98,107.78,282.98,107.68,284.2z"/>
		<path fill="#26231E" d="M75.32,247.43c-2.52,0.17-5.2-0.42-7.51-2.07c-3.02-2.15-4.13-5.77-2.04-9.18
			c0.15-0.24,0.43-0.4,0.25-0.85c-0.2-0.49,0.23-0.91,0.58-1.29c1.51-1.61,3.57-2.19,5.53-2.93c3.02-1.13,6.17-1.66,9.4-1.43
			c2.34,0.16,4.74,0.41,6.76,1.64c1.33,0.82,2.1,2.31,2.19,3.97c0.16,3.14-1.26,5.61-3.54,7.61c-2.23,1.95-4.73,3.42-7.62,4.21
			C78.1,247.43,76.87,247.41,75.32,247.43z"/>
		<path fill="#26231E" d="M83.99,266.64c-2.21-0.14-4.01-1.4-5.47-3.16c-1.06-1.29-2.08-2.64-2.57-4.29
			c-0.08-0.26-0.34-0.46-0.67-0.55c-0.8-0.22-0.61-0.67-0.14-1.06c0.22-0.18,0.48-0.34,0.8-0.36c4.71-0.25,8.88-2,12.75-4.6
			c0.53-0.36,1.24-0.37,1.66-1.02c0.17-0.27,0.73-0.15,1.11,0.09c0.39,0.25,0.54,0.61,0.45,1c-0.81,3.65-1.21,7.41-2.92,10.8
			C88.01,265.46,86.42,266.56,83.99,266.64z"/>
		<path fill="#26231E" d="M47.79,242.09c0.14,1.57-1.19,3.16-2.53,3.1c-1.39-0.06-2.78-1.61-2.79-3.24
			c-0.01-1.54,0.97-2.49,2.58-2.49C46.66,239.46,47.79,240.55,47.79,242.09z"/>
		<path fill="#26231E" d="M104.03,232.31c-1.94,0-2.84-1.22-2.23-2.97c0.23-0.67,0.05-1.46,0.85-1.97c1.18-0.74,2.5-0.33,3.32,0.95
			c0.64,1,0.63,2.92-0.79,3.78C104.72,232.36,104.32,232.21,104.03,232.31z"/>
		<path fill="#FDFDFD" d="M98.89,293.42c1.26,0.11,2.49,0.34,3.68,0.76C101.31,294.1,100.06,293.96,98.89,293.42z"/>
		<path fill="#FFFFFF" d="M98.22,285.01c-0.01,0.65-0.6,0.84-0.96,1.21C97.32,285.61,97.84,285.36,98.22,285.01z"/>
		<path fill="#FFFFFF" d="M99.24,283.78c0.02,0.54-0.4,0.74-0.77,0.97C98.53,284.27,98.92,284.05,99.24,283.78z"/>
		<path fill="#F6C5CD" d="M73.98,299.1c0-3,0-6,0-9c0.15-0.86,0.31-1.73,0.63-2.54c0.35-0.91,0.9-1.68,2.02-1.76
			c1.97,0.44,3.8,1.27,5.61,2.1c0.57,0.26,1.11,0.55,1.77,0.58c0.45,0.02,0.92,0.19,0.75,0.78c-0.43,1.56,0.07,2.92,0.86,4.21
			c0.2,0.32,0.15,0.48-0.08,0.67c-2.66,2.12-5.12,4.51-8.37,5.77c-0.51,0.2-1.04,0.23-1.57,0.22
			C74.71,300.33,74.25,299.87,73.98,299.1z"/>
		<path fill="#F6C5CD" d="M91.06,294.18c-2.21,0.17-4.05-1.73-4.24-3.59c-0.18-1.75,1.43-3.98,3.57-4.2
			c2.26-0.23,4.42,1.17,5.01,3.49c0.47,1.86-0.67,3.6-2.73,4.08C92.13,294.1,91.58,294.33,91.06,294.18z"/>
		<path fill="#FFFFFF" d="M110.13,292.16c0.16-1.94-0.67-3.62-1.35-5.35c-0.19-0.47-0.35-0.95-0.52-1.42
			c1.09-0.74,1.18-0.72,1.44,0.51c0.29,1.35,0.59,2.71,0.81,4.07C110.63,290.72,110.52,291.48,110.13,292.16z"/>
		<path fill="#FFFFFF" d="M107.68,284.2c-0.52-1.36-1.09-2.69-2.25-3.66c1.51-0.07,3.13,1.24,3.31,2.81
			C108.8,283.9,108.13,284.02,107.68,284.2z"/>
		<path fill="#FFFFFF" d="M76.63,285.8c-1.69,0.73-2.02,2.33-2.47,3.85c-0.04,0.15-0.12,0.3-0.18,0.45
			c-0.02-1.26,0.27-2.48,0.6-3.68C74.91,285.25,75.5,285.11,76.63,285.8z"/>
		<path fill="#FFFFFF" d="M73.98,299.1c0.41,0.54,0.87,1,1.61,1.03C74.48,300.53,74.08,300.27,73.98,299.1z"/>
		<path fill="#FFFFFF" d="M99.68,289.68c0.27,0.01,0.58,0.1,0.8,0c0.97-0.43,1.25,0.21,1.56,1.02c-1-0.08-1.89-0.35-2.74-0.77
			C99.34,289.72,99.46,289.62,99.68,289.68z"/>
		<path fill="#26231E" d="M99.68,289.68c-0.13,0.09-0.26,0.17-0.39,0.26c-0.17-0.07-0.3-0.22-0.15-0.35
			C99.31,289.43,99.55,289.38,99.68,289.68z"/>
		<path fill="#FFFFFF" d="M75.53,245.8c-2.87-0.03-5.42-0.64-7.48-2.38c-2.48-2.1-3.11-5.75-0.08-8.27c0.18-0.15,0.26-0.54,0.24-0.8
			c-0.01-0.1,0.14-0.24,0.26-0.31c1.46-0.92,3.11-1.39,4.73-1.9c1.81-0.56,3.67-0.83,5.59-0.87c2.29-0.05,4.62-0.11,6.74,0.71
			c1.59,0.62,3.49,1.12,4.01,3.29c0.47,1.95-0.26,3.47-1.33,4.96c-2.08,2.9-5.14,4.14-8.43,4.94
			C78.32,245.51,76.85,245.83,75.53,245.8z"/>
		<path fill="#FFFFFF" d="M77.28,258.92c4.23-0.5,8.25-1.61,12-4.05c-0.62,2.48-0.88,4.88-1.8,7.13c-1.05,2.57-3.18,3.53-5.72,1.98
			C80.35,263.12,77.82,260.35,77.28,258.92z"/>
		<path fill="#FFFFFF" d="M82.32,294.22c-0.52,0.76-1.3,1.23-2.08,1.83c0.1-0.8,0.77-1.12,1.07-1.68
			C81.65,294.27,81.94,293.95,82.32,294.22z"/>
		<path fill="#26231E" d="M82.32,294.22c-0.36-0.12-0.64,0.32-1.01,0.16c0.26-0.56,0.68-0.46,1.13-0.28
			c-0.01,0.03-0.02,0.06-0.03,0.08C82.39,294.2,82.35,294.21,82.32,294.22z"/>
		<path fill="#FFFFFF" d="M93.52,289.5c-0.03,0.14-0.09,0.28-0.24,0.25c-0.06-0.01-0.1-0.21-0.11-0.32c0-0.07,0.09-0.2,0.13-0.2
			C93.45,289.24,93.52,289.36,93.52,289.5z"/>
		<path fill="#26231E" d="M74.97,239.83c0.01,1.19-0.46,1.48-2.37,1.47c-1.17-0.01-2.1-0.89-2.12-2c-0.04-1.88,0.59-2.75,2.05-2.68
			C74.19,236.69,74.84,237.69,74.97,239.83z"/>
		<path fill="#26231E" d="M84.31,238.85c-1.51,0-2.39-0.7-2.39-1.91c-0.01-0.88,1.36-2.19,2.25-2.16c0.73,0.03,1.84,1.69,1.83,2.76
			C86,238.46,85.5,238.85,84.31,238.85z"/>
	</g>
	<path fill="#FFFFFF" d="M284.26,375.03c-0.06-1.07,0.34-1.98,0.83-2.85c0.41-0.72,2.04-0.55,2.44,0.25
		c0.86,1.72,0.29,3.97-1.38,4.92c-0.71,0.4-1.53,0.16-1.63-0.59C284.44,376.17,284.14,375.61,284.26,375.03z"/>
	<path fill="#FFFFFF" d="M241.36,371.96c0,1.62-0.39,3.09-1.64,4.21c-0.77,0.69-1.69,0.99-2.67,0.59c-1.04-0.42-1.43-1.28-1.43-2.39
		c0-2,1.06-3.47,2.53-4.53C239.78,368.68,241.35,369.79,241.36,371.96z"/>
	<path fill="#FFFFFF" d="M262.46,379.66c1.53-0.01,2.04,0.55,1.46,1.54C263.65,380.47,263.27,379.87,262.46,379.66z"/>
	<g>
		<path fill="#26231E" d="M88.19,425.58c0.85,1.61,0.79,3.07,0.46,4.51c-0.38,1.66-0.79,3.3-1.69,4.8
			c-1.24,2.08-3.84,3.03-6.12,2.11c-3.42-1.38-5.03-4.17-5.97-7.5c-3.01,2.22-6.78,2.14-9.88,0.01c-0.11-0.08-0.23-0.17-0.29-0.29
			c-0.88-1.84-2.43-1.04-3.81-0.98c-1.62,0.07-3.2,0.51-4.88,0.17c-1.97-0.4-2.74-1.76-3.09-3.43c-0.51-2.46-0.19-4.89,0.57-7.28
			c0.41-1.3,1.33-2.2,2.25-3.14c-5.2-2.55-10.14-5.45-14.67-8.99c-3.14-2.46-6.08-5.16-8.61-8.3c-2.8-3.48-5.06-7.22-6.37-11.5
			c-0.54-1.78-0.8-3.6-1.03-5.45c-0.51-4.18,0.38-8.15,1.71-12.01c1.42-4.11,3.46-7.94,5.61-11.72c1.63-2.86,3.27-5.72,5.17-8.41
			c0.53-0.76,1.06-1.52,1.63-2.25c0.79-0.99,0.9-2.28,1.6-3.34c1.14-1.74,2.33-3.39,3.94-4.73c0.53-0.44,0.81-1.17,1.21-1.77
			c1.49-2.26,3.26-4.24,5.82-5.29c3.11-1.28,7.09-0.97,9.11,2.32c1.36,2.21,1.1,4.53,0.27,6.84c-0.33,0.92-0.67,1.85-1.33,2.64
			c7.81,2.68,15.4,5.82,23.04,8.84c5.76,2.28,11.46,4.73,17.18,7.13c5.32,2.23,10.64,4.49,15.95,6.75c1.3,0.55,2.58,1.15,3.85,1.76
			c0.61,0.3,0.85,0.2,1.15-0.46c0.83-1.85,1.84-3.6,3.32-5.03c1.99-1.93,4.36-3.19,7.14-3.23c2.22-0.03,4.5,0.47,5.46,2.92
			c0.54,1.38,0.42,2.83,0.34,4.26c-0.09,1.71-0.56,3.36-0.41,5.12c0.15,1.85-0.1,3.76-0.67,5.53c-0.29,0.9-0.2,1.7-0.07,2.51
			c0.45,2.7,0.69,5.41,1.03,8.12c0.47,3.71,0.47,7.43,0.34,11.14c-0.17,4.71-1.11,9.3-3.01,13.66c-1.51,3.47-3.49,6.61-6.16,9.3
			c-3.19,3.21-7.04,5.19-11.42,6.22c-2.15,0.5-4.34,0.65-6.52,0.89c-2.35,0.26-4.65-0.04-6.96-0.14c-3.08-0.13-6.17-0.45-9.21-1.11
			c-0.46-0.1-1.04-0.34-1.58,0.11c-0.23,0.19-0.83,0.23-1.05-0.05C90.7,425.75,89.41,426.14,88.19,425.58z"/>
		<path fill="#FFFFFF" d="M107.98,425.71c-4.11,0.06-7.86-0.34-11.6-0.99c-0.55-0.09-1.13-0.25-1.68-0.21
			c-0.87,0.06-0.94-0.33-0.72-0.99c1.08-3.2,1.6-6.52,2.21-9.83c0.23-1.24,0.33-2.52,0.42-3.78c0.26-3.53,0.6-7.07,0.42-10.62
			c-0.22-4.46-0.9-8.82-3.15-12.79c-2.01-3.54-4.73-6.36-8.68-7.63c-2.72-0.87-5.56-0.76-8.36-0.26c-4.41,0.79-8.25,2.89-11.78,5.51
			c-2.9,2.16-5.54,4.63-7.83,7.49c-2.29,2.86-4.29,5.86-5.83,9.17c-0.98,2.11-1.86,4.27-2.71,6.44c-0.2,0.52-0.27,0.65-0.78,0.31
			c-3.11-2.04-6.12-4.19-8.93-6.65c-4.16-3.66-7.56-7.86-9.83-12.93c-1.04-2.32-1.69-4.75-2-7.3c-0.6-4.97,0.63-9.6,2.47-14.13
			c3.02-7.42,7.24-14.17,11.71-20.77c1.13-1.67,2.22-3.36,3.34-5.03c0.09-0.13,0.06-0.4,0.27-0.38c1.68,0.17,1.74-1.39,2.34-2.28
			c1.68-2.47,3.37-4.99,6.45-5.74c2.72-0.67,5.85,0,6.51,3.71c0.2,1.11-0.22,2.23-0.5,3.32c-0.46,1.81-1.43,3.38-2.2,5.05
			c-0.13,0.28-0.59,0.61-0.1,0.93c0.41,0.26,0.66,0.03,0.82-0.4c0.18-0.46,0.51-0.24,0.82-0.12c3.38,1.26,6.76,2.5,10.14,3.76
			c4.37,1.62,8.66,3.42,12.95,5.23c4.71,1.99,9.45,3.94,14.15,5.96c3.62,1.56,7.2,3.21,10.8,4.8c3.82,1.68,7.65,3.3,11.46,5.01
			c0.53,0.24,1.23,0.32,1.49,1.13c0.12,0.36,0.73,0.32,1.11-0.16c0.79-1,1.12-2.23,1.76-3.3c1.28-2.15,3.07-3.82,4.98-5.38
			c0.56-0.46,0.72-1.27,1.62-1.45c1.37-0.26,2.69-0.3,3.99,0.18c0.97,0.36,1.72,1.51,1.73,2.59c0.01,1.4-0.43,2.79-0.49,4.12
			c-0.13,2.69-1.01,5.11-1.76,7.6c-0.26,0.84-0.68,1.63-0.94,2.47c-0.18,0.58-0.25,1.36,0.57,1.44c0.99,0.1,0.9,0.81,0.98,1.39
			c0.37,2.74,0.77,5.47,1,8.22c0.09,1.03,0.25,2.07,0.25,3.11c-0.02,2.38,0.18,4.77,0,7.15c-0.31,4.21-1.13,8.29-2.81,12.2
			c-1.37,3.18-3.18,6.05-5.67,8.43c-3.19,3.06-7.02,4.97-11.39,5.78C112.56,425.57,110.13,425.79,107.98,425.71z"/>
		<path fill="#FFFFFF" d="M95.82,400.77c0.06,5.47-0.74,10.25-1.77,15.02c-0.53,2.48-1.41,4.86-1.93,7.34
			c-0.15,0.68-0.59,0.87-1.22,0.73c-4.18-0.92-8.35-1.82-12.47-3.02c-4.64-1.35-9.22-2.85-13.64-4.76
			c-4.46-1.92-8.88-3.94-13.14-6.3c-1.78-0.98-1.78-0.91-1.27-2.93c1.01-3.94,2.9-7.45,5.13-10.81c1.72-2.6,3.67-5.03,5.95-7.15
			c4-3.72,8.41-6.84,13.66-8.59c1.99-0.66,4.02-1.07,6.12-1.19c2.72-0.16,4.87,1.19,6.88,2.67c4.11,3.03,6.11,7.35,7.1,12.24
			C95.7,396.46,95.92,398.89,95.82,400.77z"/>
		<path fill="#815021" d="M61.06,417.12c1.63,0.31,2.79,1.47,4.15,2.28c0.25,0.15,0.35,0.31,0.1,0.55c-0.41,0.4-0.82,0.8-1.21,1.21
			c-0.31,0.32-0.37-0.03-0.51-0.17c-0.63-0.67-1.26-1.34-2.07-1.79c-0.64-0.36-1.34-0.55-1.76,0.24c-0.4,0.74,0.1,1.16,0.74,1.51
			c0.89,0.48,1.74,1.03,2.46,1.83c-0.94,0.28-1.8-0.24-2.69-0.14c-0.43,0.05-0.92-0.09-1.03,0.55c-0.12,0.71,0.35,0.93,0.87,0.99
			c0.7,0.09,1.42,0.08,2.13,0.09c0.38,0.01,0.67,0.05,0.67,0.54c-0.01,0.44-0.02,0.84-0.59,0.89c-1.44,0.13-2.89,0.26-4.33,0.4
			c-1.74-0.4-2.65-1.56-3.03-3.23c-0.12-1.2,0.07-2.36,0.41-3.5c0.73-1.82,2.6-2.79,4.81-2.46
			C60.48,416.94,60.79,416.99,61.06,417.12z"/>
		<path fill="#815021" d="M84.8,433.46c-0.53,1.17-1.56,1.7-2.7,1.31c-2.46-0.83-3.58-2.85-4.41-5.1c-0.04-0.11-0.02-0.31,0.06-0.37
			c0.2-0.17,0.41,0.01,0.54,0.11c0.81,0.61,1.67,1.16,2.22,2.05c0.21,0.33,0.45,0.58,0.89,0.58c0.35,0,0.66-0.01,0.83-0.41
			c0.15-0.35,0-0.56-0.2-0.82c-1.02-1.3-2.34-2.21-4.07-2.99c0.73-0.1,1.07,0.26,1.48,0.37c0.42,0.11,0.8,0.36,1.2,0.56
			c0.34,0.16,0.67,0.33,1.01,0.49c0.42,0.19,0.93,0.33,1.18-0.13c0.27-0.49,0.23-1.07-0.31-1.45c-1.42-0.98-2.97-1.59-4.7-1.74
			c-0.49-0.04-1.05,0.07-1.19-0.63c0.45-1.19,1.54-0.93,2.42-0.96c0.76-0.03,1.56,0.03,2.3,0.3c0.29,0.1,0.53,0.04,0.77-0.11
			c1,0.16,1.93,0.54,2.84,0.97c0.93,0.43,1.42,1.08,1.48,2.09c0.2,0.71-0.17,1.36-0.23,2.05l0.02-0.03
			C85.75,430.87,85.43,432.22,84.8,433.46z"/>
		<path fill="#815021" d="M69.43,421.2c0.9,0.62,1.83,1.21,2.7,1.88c0.74,0.56,1.48,1.16,1.61,2.19c-0.02,1.44-1.11,2.04-2.14,2.68
			c-0.28,0.17-0.61,0.27-0.92,0.39c-1.63,0.1-3.15-0.05-4.38-1.36c-1.81-1.94-1.04-5.1,1.52-5.99
			C68.4,420.76,68.91,421.03,69.43,421.2z"/>
		<path fill="#FFFFFF" d="M61.06,417.12c-0.47,0-0.95,0.05-1.42,0.01c-1.9-0.16-3.2,0.81-4.27,2.24c0.1-1.28,0.67-2.3,1.69-3.05
			c0.75-0.55,1.49-0.53,2.29-0.02C59.88,416.62,60.59,416.64,61.06,417.12z"/>
		<path fill="#FFFFFF" d="M54.97,422.87c0.57,1.49,1.61,2.53,3.03,3.23c-1.51,0.6-2.77-0.41-2.85-1.78
			C55.11,423.84,54.84,423.38,54.97,422.87z"/>
		<path fill="#FFFFFF" d="M82.11,424.5c-0.2,0.51-0.51,0.54-0.99,0.32c-1.16-0.51-2.36-0.45-3.57-0.16
			c-0.41,0.1-0.66,0.34-0.92,0.61c-0.05-0.32,0.06-0.67-0.16-0.93C78.38,424.06,80.25,424.12,82.11,424.5z"/>
		<path fill="#FFFFFF" d="M70.7,428.35c0.75-0.55,1.5-1.09,2.23-1.66c0.45-0.35,0.52-0.96,0.82-1.41c0.34,0.9,0.05,1.67-1.04,2.37
			C72.12,428.02,71.46,428.37,70.7,428.35z"/>
		<path fill="#FFFFFF" d="M84.8,433.46c0.32-1.35,0.71-2.68,1.43-3.88C86.02,430.97,85.75,432.34,84.8,433.46z"/>
		<path fill="#FFFFFF" d="M69.43,421.2c-0.58,0.32-1.05-0.29-1.6-0.2c0.07-0.35,0.39-0.12,0.57-0.25
			C68.99,420.29,69.31,420.55,69.43,421.2z"/>
		<path fill="#FFFFFF" d="M86.2,429.61c-0.13-0.7,0.24-1.35,0.23-2.05C86.9,428.3,86.38,428.94,86.2,429.61z"/>
		<path fill="#FFFFFF" d="M76.97,423.03c-0.42-0.01-0.81,0.16-1.16-0.11c-0.02-0.02,0.04-0.22,0.1-0.24
			C76.31,422.57,76.65,422.69,76.97,423.03z"/>
		<path fill="#815021" d="M40.03,375.19c0-1.98,0.87-2.91,3.12-2.96c3.28-0.08,6.01,1.3,8.2,3.67c0.97,1.05,0.98,3.16,0.27,4.23
			c-0.79,1.17-2.62,1.82-4.13,1.42c-2.42-0.62-4.57-1.72-6.29-3.58C40.46,377.16,39.9,376.27,40.03,375.19z"/>
		<path fill="#815021" d="M111.44,399.37c3.03,0.34,5.92,1.03,8.27,3.15c1.15,1.04,1.71,2.86,1.11,3.8
			c-0.49,0.77-1.25,1.15-2.14,1.21c-3.08,0.2-5.67-1.1-8.14-2.74c-0.84-0.56-1.55-1.23-1.99-2.18c-0.73-1.56,0.16-3.12,1.88-3.23
			C110.76,399.35,111.1,399.37,111.44,399.37z"/>
		<path fill="#26231E" d="M132.19,367.54c0,2.51-2.11,5.55-4.31,6.21c-1.58,0.47-3.28-0.75-3.25-2.38c0.06-2.73,1.21-4.99,3.12-6.86
			c0.72-0.71,1.64-0.91,2.67-0.52c1.23,0.48,1.55,1.51,1.76,2.63C132.23,366.92,132.19,367.24,132.19,367.54z"/>
		<path fill="#26231E" d="M52.49,341.98c-1.18,0.14-2.09-0.46-2.58-1.52c-0.55-1.21-0.2-2.4,0.65-3.38
			c1.03-1.19,2.15-2.27,3.79-2.58c0.31-0.06,0.55-0.08,0.85,0.06c1.54,0.72,2.26,2.45,1.8,4.08C56.27,341.23,54.27,342,52.49,341.98
			z"/>
		<path fill="#26231E" d="M58.8,364.06c-0.87-0.26-1.55-1.13-2.21-1.93c-0.61-0.74-0.06-1.55,0.34-2.19
			c0.67-1.07,2.65-1.27,3.34-0.28c0.89,1.28,0.56,3.22-0.56,4.21C59.49,364.06,59.28,364.01,58.8,364.06z"/>
		<path fill="#26231E" d="M110.33,381.19c1.71,0,2.42,1.47,1.4,3.08c-0.47,0.75-1.11,1.37-2.14,1.43c-0.72,0.04-1.02-0.34-1.08-0.9
			c-0.08-0.77-0.08-1.56-0.01-2.33C108.59,381.64,109.3,381.19,110.33,381.19z"/>
		<path fill="#26231E" d="M81.02,389.69c-2.61-0.89-5.09-1.93-6.13-4.81c-0.42-1.18,0.25-2.69,1.42-3.03
			c3.33-0.96,6.71-1.46,10.02,0.02c1.75,0.78,2.89,2.19,3.14,4.16c0.17,1.35-1.09,3-2.53,3.54c-1.3,0.48-2.63,0.44-3.97,0.38
			c-0.75-0.03-1.04,0.27-1.27,0.94c-1.79,5.21-4.06,10.23-5.98,15.38c-0.28,0.75-0.93,0.48-1.36,0.39c-0.33-0.06-0.5-0.52-0.3-0.99
			c0.96-2.22,1.88-4.47,2.85-6.69C78.26,395.86,79.66,392.75,81.02,389.69z"/>
		<path fill="#26231E" d="M83.85,411.6c-2.19-0.43-4.35-0.99-6.5-1.61c-4.43-1.28-8.69-2.95-12.76-5.11
			c-0.9-0.48-1.78-0.99-2.65-1.52c-0.28-0.17-0.63-0.46-0.4-0.82c0.22-0.34,0.55-0.01,0.8,0.1c4.14,1.73,8.23,3.59,12.52,4.93
			c3.08,0.96,6.21,1.69,9.35,2.38c0.62,0.14,0.84,0.42,0.75,0.9C84.85,411.38,84.41,411.65,83.85,411.6z"/>
		<path fill="#FFFFFF" d="M81.72,385.83c-0.49,0.11-0.58-0.29-0.87-0.38c-0.43-0.14-0.72-0.59-0.72-0.99c0-0.48,0.54-0.57,0.94-0.7
			c0.5-0.15,1.03-0.45,0.68,0.55C81.59,384.76,81.72,385.31,81.72,385.83z"/>
		<path fill="#FFFFFF" d="M77.34,383.66c0.21,0.42-0.33,0.45-0.17,0.77C76.9,384.08,77.05,383.86,77.34,383.66z"/>
	</g>
	<path fill="#26231E" d="M238.97,374.39c-0.18-0.73-0.35-1.43-0.28-2.17c0.04-0.47,0.29-0.83,0.72-0.8c0.6,0.03,0.34,0.62,0.28,0.87
		C239.49,372.99,239.47,373.77,238.97,374.39z"/>
	<path fill="#26231E" d="M238.08,375.2c-0.48,0.15-0.71,0-0.87-0.53C237.54,374.87,237.77,375.01,238.08,375.2z"/>
</g>
</svg>
